<svg xmlns="http://www.w3.org/2000/svg" version="1.1" width="260" height="280">
<path d="M0 0 C85.8 0 171.6 0 260 0 C260 92.4 260 184.8 260 280 C174.2 280 88.4 280 0 280 C0 187.6 0 95.2 0 0 Z " fill="#FDFDFC" transform="translate(0,0)"/>
<path d="M0 0 C0.92261627 0.14825729 1.84523254 0.29651459 2.79580688 0.44926453 C5.73204097 0.92256567 8.66677737 1.40452363 11.6015625 1.88671875 C13.53246088 2.19913195 15.46344991 2.51098538 17.39453125 2.82226562 C29.01181106 4.69980206 40.61997688 6.63181899 52.2265625 8.57421875 C52.7215625 16.49421875 52.7215625 16.49421875 53.2265625 24.57421875 C54.2371875 23.89359375 55.2478125 23.21296875 56.2890625 22.51171875 C66.20727788 16.40280025 76.22647957 10.34091367 88.2265625 12.57421875 C95.61097746 14.60131305 101.18607085 17.16941245 106.6796875 22.47265625 C108.40219377 23.92467778 108.40219377 23.92467778 111.8515625 23.57421875 C115.10680958 22.69060398 115.10680958 22.69060398 117.6015625 21.51171875 C124.87524491 18.91397503 133.45619457 21.03388112 140.8515625 22.32421875 C142.34816406 22.56011719 142.34816406 22.56011719 143.875 22.80078125 C150.80292949 23.99209188 157.81466354 25.6364202 162.1640625 31.69921875 C165.92598591 38.34528345 165.36953989 47.2351949 164.2265625 54.57421875 C162.98437483 58.35275615 161.59122972 60.43476307 158.2265625 62.57421875 C154.27876166 64.06596536 150.38316779 64.89730187 146.2265625 65.57421875 C143.7515625 66.06921875 143.7515625 66.06921875 141.2265625 66.57421875 C140.8965625 73.17421875 140.5665625 79.77421875 140.2265625 86.57421875 C136.5965625 86.57421875 132.9665625 86.57421875 129.2265625 86.57421875 C129.2265625 87.23421875 129.2265625 87.89421875 129.2265625 88.57421875 C129.96777344 88.82042969 130.70898438 89.06664063 131.47265625 89.3203125 C138.02886142 92.30547826 142.79254156 99.27041641 145.421875 105.84375 C147.22701913 111.96897209 148.17611914 118.28494001 149.2265625 124.57421875 C149.40002197 125.35611572 149.57348145 126.1380127 149.75219727 126.94360352 C153.29666181 146.59960221 151.27153459 174.334006 140.2890625 191.51171875 C137.89146318 194.86835779 135.22921607 197.73837927 132.2265625 200.57421875 C131.5665625 201.56421875 130.9065625 202.55421875 130.2265625 203.57421875 C127.84671434 204.42731636 125.60767431 205.10522763 123.1640625 205.69921875 C122.1436084 205.95469482 122.1436084 205.95469482 121.10253906 206.21533203 C109.64284229 209.00525821 99.88520554 209.44734859 89.2265625 203.57421875 C87.26987551 202.81993401 85.31133528 202.07044934 83.3515625 201.32421875 C75.04565257 197.86599603 69.33555458 193.17088092 65.25 185.08203125 C63.32984299 180.3769137 62.19322795 175.5528252 61.2265625 170.57421875 C61.05664795 169.71014404 60.8867334 168.84606934 60.71166992 167.95581055 C59.36076365 160.59659357 58.87503938 153.48719089 58.9140625 146.01171875 C58.92143433 144.32151611 58.92143433 144.32151611 58.92895508 142.59716797 C59.15754102 126.07567975 60.39219923 107.81216165 72.3984375 95.2578125 C76.60692703 91.38204543 80.85234247 88.61018607 86.2265625 86.57421875 C84.77636719 86.62642578 84.77636719 86.62642578 83.296875 86.6796875 C72.48873738 86.90441115 64.3971479 86.60133233 55.8515625 79.38671875 C48.62094161 72.38276309 45.34617977 64.20757447 44.92578125 54.13671875 C44.91140971 52.61594831 44.90757434 51.09504326 44.9140625 49.57421875 C44.89794922 48.81882813 44.88183594 48.0634375 44.86523438 47.28515625 C44.85983938 41.00537887 46.40833907 36.2106656 49.2265625 30.57421875 C48.4840625 31.06921875 47.7415625 31.56421875 46.9765625 32.07421875 C43.2265625 33.57421875 43.2265625 33.57421875 31.2265625 33.57421875 C31.2265625 49.08421875 31.2265625 64.59421875 31.2265625 80.57421875 C38.1565625 80.90421875 45.0865625 81.23421875 52.2265625 81.57421875 C52.2265625 125.46421875 52.2265625 169.35421875 52.2265625 214.57421875 C51.5665625 214.57421875 50.9065625 214.57421875 50.2265625 214.57421875 C50.2265625 215.56421875 50.2265625 216.55421875 50.2265625 217.57421875 C49.35515625 217.68378906 48.48375 217.79335937 47.5859375 217.90625 C41.60323175 218.70264914 35.80123989 219.59894931 29.9765625 221.19921875 C17.59963602 224.40071707 17.59963602 224.40071707 12.34375 221.5546875 C9.7861603 219.50985129 8.03885052 217.29265077 6.2265625 214.57421875 C6.04307585 212.12676383 5.97403735 209.79521956 5.99951172 207.34887695 C5.99921967 206.61692108 5.99892761 205.88496521 5.99862671 205.13082886 C6.00001976 202.71209854 6.01557961 200.29367649 6.03125 197.875 C6.03498022 196.19777088 6.03782715 194.52053958 6.03982544 192.8433075 C6.04746118 188.42916852 6.06710915 184.01516119 6.0892334 179.60107422 C6.1096931 175.0966978 6.11882742 170.59230011 6.12890625 166.08789062 C6.1503551 157.24994217 6.18449034 148.41209141 6.2265625 139.57421875 C5.1963649 140.12661224 4.1661673 140.67900574 3.10475159 141.24813843 C1.7398661 141.97846707 0.37495057 142.70873959 -0.98999023 143.43896484 C-1.66742027 143.80239487 -2.34485031 144.16582489 -3.04280853 144.54026794 C-7.57180847 146.96134858 -12.08720892 149.23241422 -16.8359375 151.19921875 C-18.02316406 151.70710937 -19.21039063 152.215 -20.43359375 152.73828125 C-25.02812308 153.88825701 -27.67328087 152.62429706 -31.7734375 150.57421875 C-31.7734375 139.35421875 -31.7734375 128.13421875 -31.7734375 116.57421875 C-29.3809375 115.72859375 -26.9884375 114.88296875 -24.5234375 114.01171875 C-13.03400246 109.80115868 -1.90732444 104.36166046 5.3515625 94.19921875 C6.01414063 93.28398438 6.67671875 92.36875 7.359375 91.42578125 C9.58497338 88.14697233 9.58497338 88.14697233 12.2265625 82.57421875 C7.6065625 82.57421875 2.9865625 82.57421875 -1.7734375 82.57421875 C-1.7734375 64.75421875 -1.7734375 46.93421875 -1.7734375 28.57421875 C-7.0534375 28.24421875 -12.3334375 27.91421875 -17.7734375 27.57421875 C-19.7534375 27.24421875 -21.7334375 26.91421875 -23.7734375 26.57421875 C-23.94864731 23.03318361 -24.05458495 19.49326991 -24.1484375 15.94921875 C-24.19871094 14.95019531 -24.24898437 13.95117188 -24.30078125 12.921875 C-24.39494586 8.18225618 -24.46295008 4.56350338 -21.25 0.86328125 C-16.24652983 -4.07018584 -6.21595835 -1.03304897 0 0 Z " fill="#F7C732" transform="translate(61.7734375,23.42578125)"/>
<path d="M0 0 C6.44166824 0.64416682 12.80236307 1.3101498 19.1875 2.3125 C20.31961914 2.47008789 20.31961914 2.47008789 21.47460938 2.63085938 C27.52544693 3.58956351 32.03670608 5.48608472 36.77734375 9.5078125 C41.73972634 16.42507308 41.26181191 25.89794327 40 34 C38.75781233 37.7785374 37.36466722 39.86054432 34 42 C30.05219916 43.49174661 26.15660529 44.32308312 22 45 C20.35 45.33 18.7 45.66 17 46 C16.67 52.6 16.34 59.2 16 66 C12.37 66 8.74 66 5 66 C5 66.66 5 67.32 5 68 C5.74121094 68.24621094 6.48242188 68.49242188 7.24609375 68.74609375 C13.80229892 71.73125951 18.56597906 78.69619766 21.1953125 85.26953125 C23.00045663 91.39475334 23.94955664 97.71072126 25 104 C25.17345947 104.78189697 25.34691895 105.56379395 25.52563477 106.36938477 C29.07009931 126.02538346 27.04497209 153.75978725 16.0625 170.9375 C13.66490068 174.29413904 11.00265357 177.16416052 8 180 C7.34 180.99 6.68 181.98 6 183 C3.62015184 183.85309761 1.38111181 184.53100888 -1.0625 185.125 C-2.0829541 185.38047607 -2.0829541 185.38047607 -3.12402344 185.64111328 C-14.58372021 188.43103946 -24.34135696 188.87312984 -35 183 C-36.95668699 182.24571526 -38.91522722 181.49623059 -40.875 180.75 C-49.58896925 177.12187897 -54.77042415 172.32670192 -59.1875 164.015625 C-60 162 -60 162 -60 159 C-56.10112001 159.779776 -52.63172977 161.41932882 -49 163 C-49.2165625 162.06929687 -49.433125 161.13859375 -49.65625 160.1796875 C-51.88963005 149.31198341 -52.35321451 138.4943102 -52.421875 127.43487549 C-52.43212909 125.79594314 -52.44899913 124.15703607 -52.47314453 122.51824951 C-52.67001134 107.26146218 -51.33539687 91.22260025 -43 78 C-42.443125 77.0925 -41.88625 76.185 -41.3125 75.25 C-29.54582612 63.80134433 -16.17808594 65 0 65 C0 43.55 0 22.1 0 0 Z " fill="#F7C933" transform="translate(186,44)"/>
<path d="M0 0 C10.05292725 -0.20331763 19.91848979 0.4693942 30 1 C30 44.89 30 88.78 30 134 C29.34 134 28.68 134 28 134 C28 134.99 28 135.98 28 137 C27.12859375 137.10957031 26.2571875 137.21914062 25.359375 137.33203125 C19.37666925 138.12843039 13.57467739 139.02473056 7.75 140.625 C-4.62692648 143.82649832 -4.62692648 143.82649832 -9.8828125 140.98046875 C-12.4404022 138.93563254 -14.18771198 136.71843202 -16 134 C-16.18348665 131.55254508 -16.25252515 129.22100081 -16.22705078 126.7746582 C-16.22734283 126.04270233 -16.22763489 125.31074646 -16.22793579 124.55661011 C-16.22654274 122.13787979 -16.21098289 119.71945774 -16.1953125 117.30078125 C-16.19158228 115.62355213 -16.18873535 113.94632083 -16.18673706 112.26908875 C-16.17910132 107.85494977 -16.15945335 103.44094244 -16.1373291 99.02685547 C-16.1168694 94.52247905 -16.10773508 90.01808136 -16.09765625 85.51367188 C-16.0762074 76.67572342 -16.04207216 67.83787266 -16 59 C-17.01610352 59.54849609 -18.03220703 60.09699219 -19.07910156 60.66210938 C-20.43287874 61.389442 -21.78672347 62.11664888 -23.140625 62.84375 C-23.80787598 63.20436523 -24.47512695 63.56498047 -25.16259766 63.93652344 C-38.33807791 71 -38.33807791 71 -44 71 C-44.09890664 66.64011928 -44.17148376 62.28083327 -44.21972656 57.92016602 C-44.23983759 56.43697739 -44.26713074 54.95386801 -44.30175781 53.47094727 C-44.35030352 51.33850565 -44.37297195 49.20711223 -44.390625 47.07421875 C-44.41157227 45.79119873 -44.43251953 44.50817871 -44.45410156 43.1862793 C-44 40 -44 40 -42.18310547 38.17016602 C-41.46268066 37.78401123 -40.74225586 37.39785645 -40 37 C-38.90429688 36.40703125 -37.80859375 35.8140625 -36.6796875 35.203125 C-35.41203124 34.55096851 -34.14377521 33.89997687 -32.875 33.25 C-26.55334993 29.94077224 -20.68701305 26.33047783 -15 22 C-14.08541016 21.36771484 -14.08541016 21.36771484 -13.15234375 20.72265625 C-8.76962103 17.43811006 -5.96135289 13.28799115 -3 8.75 C-2.58935303 8.12279053 -2.17870605 7.49558105 -1.75561523 6.84936523 C-0.76768997 5.27435936 0.12508043 3.64047419 1 2 C0.505 1.01 0.505 1.01 0 0 Z " fill="#D8A424" transform="translate(84,104)"/>
<path d="M0 0 C0.92261627 0.14825729 1.84523254 0.29651459 2.79580688 0.44926453 C5.73204097 0.92256567 8.66677737 1.40452363 11.6015625 1.88671875 C13.53246088 2.19913195 15.46344991 2.51098538 17.39453125 2.82226562 C29.01181106 4.69980206 40.61997688 6.63181899 52.2265625 8.57421875 C52.7215625 16.49421875 52.7215625 16.49421875 53.2265625 24.57421875 C54.4640625 23.76984375 55.7015625 22.96546875 56.9765625 22.13671875 C59.71855181 20.3544257 62.00803419 19.20487632 65.2265625 18.57421875 C64.61296875 19.40695313 63.999375 20.2396875 63.3671875 21.09765625 C61.06297253 24.56617031 59.92426111 28.17064698 58.9765625 32.19921875 C58.80890381 32.90143555 58.64124512 33.60365234 58.46850586 34.32714844 C55.27989734 48.57294999 57.65227632 61.17538725 65.2265625 73.57421875 C65.67322266 74.62609375 65.67322266 74.62609375 66.12890625 75.69921875 C67.52426579 78.08275106 68.68857071 78.54899765 71.2265625 79.57421875 C71.99613281 79.91582031 72.76570313 80.25742188 73.55859375 80.609375 C78.50121239 82.65647532 82.89057099 84.11021949 88.2265625 84.57421875 C85.3462306 87.45455065 83.24417833 86.8745687 79.2265625 86.88671875 C68.16896153 86.75907537 61.41834923 84.77899806 53.359375 76.97265625 C46.4764979 69.23257102 44.87108761 59.64753339 44.9140625 49.57421875 C44.89794922 48.81882813 44.88183594 48.0634375 44.86523438 47.28515625 C44.85983938 41.00537887 46.40833907 36.2106656 49.2265625 30.57421875 C48.4840625 31.06921875 47.7415625 31.56421875 46.9765625 32.07421875 C43.2265625 33.57421875 43.2265625 33.57421875 31.2265625 33.57421875 C31.2265625 49.08421875 31.2265625 64.59421875 31.2265625 80.57421875 C27.7615625 81.06921875 27.7615625 81.06921875 24.2265625 81.57421875 C22.35167746 84.75059336 22.35167746 84.75059336 21.36328125 87.1953125 C14.61554287 101.31686808 -0.26476696 110.14602168 -13.88671875 116.6171875 C-14.50933594 116.93300781 -15.13195312 117.24882812 -15.7734375 117.57421875 C-16.62276855 117.93854004 -17.47209961 118.30286133 -18.34716797 118.67822266 C-21.11134518 120.41424032 -21.11134518 120.41424032 -21.43286133 123.85229492 C-21.47389234 125.19005744 -21.48815832 126.52881798 -21.48046875 127.8671875 C-21.50315071 128.92623039 -21.50315071 128.92623039 -21.52629089 130.00666809 C-21.56923239 132.25867484 -21.57801083 134.50934309 -21.5859375 136.76171875 C-21.60907722 138.28974929 -21.63444148 139.81774787 -21.66210938 141.34570312 C-21.72502384 145.08866028 -21.7573088 148.83077939 -21.7734375 152.57421875 C-23.3984375 153.26171875 -23.3984375 153.26171875 -25.7734375 153.57421875 C-27.7534375 152.58421875 -29.7334375 151.59421875 -31.7734375 150.57421875 C-31.7734375 139.35421875 -31.7734375 128.13421875 -31.7734375 116.57421875 C-29.3809375 115.72859375 -26.9884375 114.88296875 -24.5234375 114.01171875 C-13.03400246 109.80115868 -1.90732444 104.36166046 5.3515625 94.19921875 C6.01414063 93.28398438 6.67671875 92.36875 7.359375 91.42578125 C9.58497338 88.14697233 9.58497338 88.14697233 12.2265625 82.57421875 C7.6065625 82.57421875 2.9865625 82.57421875 -1.7734375 82.57421875 C-1.7734375 64.75421875 -1.7734375 46.93421875 -1.7734375 28.57421875 C-7.0534375 28.24421875 -12.3334375 27.91421875 -17.7734375 27.57421875 C-19.7534375 27.24421875 -21.7334375 26.91421875 -23.7734375 26.57421875 C-23.94864731 23.03318361 -24.05458495 19.49326991 -24.1484375 15.94921875 C-24.19871094 14.95019531 -24.24898437 13.95117188 -24.30078125 12.921875 C-24.39494586 8.18225618 -24.46295008 4.56350338 -21.25 0.86328125 C-16.24652983 -4.07018584 -6.21595835 -1.03304897 0 0 Z " fill="#DBA625" transform="translate(61.7734375,23.42578125)"/>
<path d="M0 0 C-0.2165625 0.51304688 -0.433125 1.02609375 -0.65625 1.5546875 C-4.67589597 12.60871391 -4.99744889 27.20229919 0 38 C3.15745932 44.40744492 7.41723027 50.0568349 14.15112305 52.91210938 C20.7540025 54.99356315 26.73309417 55.36692879 33.625 55.1875 C35.13126953 55.16719727 35.13126953 55.16719727 36.66796875 55.14648438 C39.11256864 55.11156152 41.55597734 55.06252748 44 55 C44 55.33 44 55.66 44 56 C43.2265625 56.14695313 42.453125 56.29390625 41.65625 56.4453125 C32.6369489 58.38758774 25.85285108 61.64763545 20.15234375 69.15234375 C7.59447328 89.28750555 8.3143383 119.71312917 13.02734375 142.140625 C15.51168919 151.99818845 19.13836762 161.55855579 28.015625 167.3046875 C31.87050036 169.32040477 35.86981099 170.65136685 40 172 C41.41870515 172.68328353 42.83518475 173.37119798 44.25 174.0625 C53.5317731 178.15694717 61.66087581 176.82117897 71.265625 174.7890625 C75 174 75 174 78.41015625 173.55078125 C79.69212891 173.27814453 79.69212891 173.27814453 81 173 C82.24714403 170.59047977 82.24714403 170.59047977 83 168 C83.99 167.34 84.98 166.68 86 166 C87.98 167.98 87.98 167.98 90 170 C88.19096826 172.43826017 86.86215328 173.86370934 83.80078125 174.34765625 C82.21029127 174.44754209 80.61692021 174.51007415 79.0234375 174.53125 C78.02183594 174.76328125 78.02183594 174.76328125 77 175 C75.73827531 176.91902058 75.73827531 176.91902058 75 179 C74.67 179.33 74.34 179.66 74 180 C72.865625 179.979375 71.73125 179.95875 70.5625 179.9375 C66.94857727 179.58835972 66.94857727 179.58835972 65 182 C56.60636622 184.64032752 47.68486549 184.0691296 39.00854492 183.96362305 C29.99680455 183.89724762 21.18606186 184.65182134 12.24707031 185.72998047 C8.50103857 186.18012292 4.75019863 186.58621069 1 187 C1 186.01 1 185.02 1 184 C1.66 184 2.32 184 3 184 C3 140.11 3 96.22 3 51 C-3.27 51 -9.54 51 -16 51 C-16.66 50.67 -17.32 50.34 -18 50 C-18 34.49 -18 18.98 -18 3 C-12.06 2.505 -12.06 2.505 -6 2 C-2 0 -2 0 0 0 Z " fill="#FCFBF3" transform="translate(111,54)"/>
<path d="M0 0 C14 1 14 1 15 2 C16.68455421 2.15986982 18.37319344 2.27740595 20.0625 2.375 C25.93978552 2.90098275 30.96750998 3.45566691 35.6015625 7.34375 C40.64186968 13.53854095 40.04854726 22.43737636 39.32958984 29.9921875 C38.72892333 33.65135892 37.39218782 36.08488212 34.828125 38.71484375 C28.4651114 43.18798793 22.76828155 41.77682815 15 41 C14.67 47.93 14.34 54.86 14 62 C7.07 61.505 7.07 61.505 0 61 C0 40.87 0 20.74 0 0 Z " fill="#FACB33" transform="translate(187,46)"/>
<path d="M0 0 C2.97 0 5.94 0 9 0 C9 19.14 9 38.28 9 58 C13.95 58 18.9 58 24 58 C24.66 58.66 25.32 59.32 26 60 C16.1801727 75.90415834 4.78358218 86.0160423 -12.11328125 94.04296875 C-12.73589844 94.35878906 -13.35851562 94.67460937 -14 95 C-14.84933105 95.36432129 -15.69866211 95.72864258 -16.57373047 96.10400391 C-19.33790768 97.84002157 -19.33790768 97.84002157 -19.65942383 101.27807617 C-19.70045484 102.61583869 -19.71472082 103.95459923 -19.70703125 105.29296875 C-19.72215256 105.99899734 -19.73727386 106.70502594 -19.75285339 107.43244934 C-19.79579489 109.68445609 -19.80457333 111.93512434 -19.8125 114.1875 C-19.83563972 115.71553054 -19.86100398 117.24352912 -19.88867188 118.77148438 C-19.95158634 122.51444153 -19.9838713 126.25656064 -20 130 C-21.625 130.6875 -21.625 130.6875 -24 131 C-25.98 130.01 -27.96 129.02 -30 128 C-30 116.78 -30 105.56 -30 94 C-27.6075 93.154375 -25.215 92.30875 -22.75 91.4375 C-11.26056496 87.22693993 -0.13388694 81.78744171 7.125 71.625 C7.78757813 70.70976563 8.45015625 69.79453125 9.1328125 68.8515625 C11.35841088 65.57275358 11.35841088 65.57275358 14 60 C9.38 60 4.76 60 0 60 C0 40.2 0 20.4 0 0 Z " fill="#D3A029" transform="translate(60,46)"/>
<path d="M0 0 C-2.12012304 1.07230241 -4.24649325 2.11422858 -6.40234375 3.11328125 C-15.83049954 7.57313307 -20.41628452 13.10912871 -24.5625 22.5625 C-28.61062182 34.17711465 -29.46018731 45.35305068 -29.33618164 57.52246094 C-29.31252794 59.9970767 -29.31565532 62.47061148 -29.32226562 64.9453125 C-29.30596441 73.49183613 -28.86840894 81.67806488 -27.42651367 90.1171875 C-27.02994459 92.79760404 -26.92174026 95.29614146 -27 98 C-35.77674419 95.7627907 -35.77674419 95.7627907 -39 93 C-39.95936499 90.22289081 -40.5281716 87.86815883 -41 85 C-41.16693359 84.13246094 -41.33386719 83.26492187 -41.50585938 82.37109375 C-42.85272653 75.01089035 -43.35152572 67.91347081 -43.3125 60.4375 C-43.30758545 59.31069824 -43.3026709 58.18389648 -43.29760742 57.02294922 C-43.06927515 40.51979516 -41.84743857 22.20534189 -29.8203125 9.68359375 C-21.15409372 1.66827123 -11.68469022 -0.29211726 0 0 Z " fill="#715116" transform="translate(164,109)"/>
<path d="M0 0 C2.12472576 -0.05386629 4.24983652 -0.09273071 6.375 -0.125 C7.55835938 -0.14820313 8.74171875 -0.17140625 9.9609375 -0.1953125 C13 0 13 0 15 2 C17.24809276 10.41891388 17.31962814 19.09647172 17.25 27.75 C17.23876099 29.5894519 17.23876099 29.5894519 17.22729492 31.46606445 C16.90776699 58.47599266 16.90776699 58.47599266 10 67 C6.90826248 68.54586876 4.40570448 68.29359521 1 68 C-1.5 66.375 -1.5 66.375 -3 64 C-2.83762477 60.10299452 -1.71060109 57.42120218 0 54 C1.09151511 48.95979673 1.14548832 44.07321838 1.1328125 38.9453125 C1.13376923 38.08493378 1.13472595 37.22455505 1.13571167 36.33810425 C1.13638979 34.52439297 1.13456128 32.71067922 1.13037109 30.89697266 C1.1250308 28.14089417 1.13032186 25.38497962 1.13671875 22.62890625 C1.13605765 20.85937464 1.13477582 19.08984314 1.1328125 17.3203125 C1.13483673 16.50547394 1.13686096 15.69063538 1.13894653 14.85110474 C1.1186214 9.81612078 0.71721103 4.98486591 0 0 Z " fill="#755414" transform="translate(170,138)"/>
<path d="M0 0 C1.18722656 -0.01933594 2.37445313 -0.03867188 3.59765625 -0.05859375 C7.52887075 0.52534104 9.05528512 1.78045815 11.9375 4.4375 C14.83716108 6.04156783 17.60680257 7.32726752 20.75 8.375 C23.40454515 9.25984838 25.68663399 10.27813576 28.1875 11.5 C37.4692731 15.59444717 45.59837581 14.25867897 55.203125 12.2265625 C58.9375 11.4375 58.9375 11.4375 62.34765625 10.98828125 C63.20230469 10.80652344 64.05695313 10.62476563 64.9375 10.4375 C66.18464403 8.02797977 66.18464403 8.02797977 66.9375 5.4375 C67.9275 4.7775 68.9175 4.1175 69.9375 3.4375 C71.2575 4.7575 72.5775 6.0775 73.9375 7.4375 C72.12846826 9.87576017 70.79965328 11.30120934 67.73828125 11.78515625 C66.14779127 11.88504209 64.55442021 11.94757415 62.9609375 11.96875 C62.29320312 12.1234375 61.62546875 12.278125 60.9375 12.4375 C59.67577531 14.35652058 59.67577531 14.35652058 58.9375 16.4375 C58.4425 16.9325 58.4425 16.9325 57.9375 17.4375 C56.803125 17.416875 55.66875 17.39625 54.5 17.375 C50.88607727 17.02585972 50.88607727 17.02585972 48.9375 19.4375 C40.54386622 22.07782752 31.62236549 21.5066296 22.94604492 21.40112305 C13.93430455 21.33474762 5.12356186 22.08932134 -3.81542969 23.16748047 C-7.56146143 23.61762292 -11.31230137 24.02371069 -15.0625 24.4375 C-15.0625 23.4475 -15.0625 22.4575 -15.0625 21.4375 C-14.4025 21.4375 -13.7425 21.4375 -13.0625 21.4375 C-13.0625 15.4975 -13.0625 9.5575 -13.0625 3.4375 C-7.59535561 0.70392781 -5.74001777 0.00624594 0 0 Z " fill="#BCBBB8" transform="translate(127.0625,216.5625)"/>
<path d="M0 0 C0.66 0 1.32 0 2 0 C2 29.37 2 58.74 2 89 C11.57 87.35 21.14 85.7 31 84 C32.65 84 34.3 84 36 84 C36 84.66 36 85.32 36 86 C34.69289063 86.16435547 34.69289063 86.16435547 33.359375 86.33203125 C27.37666925 87.12843039 21.57467739 88.02473056 15.75 89.625 C3.37307352 92.82649832 3.37307352 92.82649832 -1.8828125 89.98046875 C-4.4404022 87.93563254 -6.18771198 85.71843202 -8 83 C-8.21414416 80.55090648 -8.31434775 78.2130029 -8.32226562 75.76220703 C-8.33716034 74.66169006 -8.33716034 74.66169006 -8.35235596 73.53894043 C-8.38156545 71.11185963 -8.39519645 68.68504018 -8.40625 66.2578125 C-8.41775521 64.5701395 -8.42927066 62.88246657 -8.4407959 61.1947937 C-8.46180587 57.65572899 -8.47349782 54.11675502 -8.48046875 50.57763672 C-8.49144054 46.04547481 -8.53950027 41.51451405 -8.59641266 36.98272896 C-8.63368419 33.49625152 -8.64407743 30.010063 -8.6471405 26.52340317 C-8.65319006 24.8528168 -8.66923609 23.18223532 -8.69551086 21.51184464 C-8.72968316 19.17249749 -8.72586652 16.83607846 -8.71289062 14.49658203 C-8.73132019 13.80861542 -8.74974976 13.1206488 -8.76873779 12.41183472 C-8.72091691 9.65543217 -8.48236237 7.57814572 -6.68681335 5.42605209 C-2.74048506 2 -2.74048506 2 0 2 C0 1.34 0 0.68 0 0 Z " fill="#8C6116" transform="translate(76,155)"/>
<path d="M0 0 C0.66 0.33 1.32 0.66 2 1 C1.38640625 1.66902344 0.7728125 2.33804688 0.140625 3.02734375 C-2.29011314 6.40287609 -3.32389521 9.57620216 -4.25 13.5625 C-4.41765869 14.26922852 -4.58531738 14.97595703 -4.75805664 15.70410156 C-7.93201509 29.97481256 -5.58871296 42.57755238 2 55 C2.29777344 55.70125 2.59554687 56.4025 2.90234375 57.125 C4.29770329 59.50853231 5.46200821 59.9747789 8 61 C8.76957031 61.34160156 9.53914063 61.68320313 10.33203125 62.03515625 C15.27464989 64.08225657 19.66400849 65.53600074 25 66 C22.1196681 68.8803319 20.01761583 68.30034995 16 68.3125 C4.94239903 68.18485662 -1.80821327 66.20477931 -9.8671875 58.3984375 C-16.7500646 50.65835227 -18.35547489 41.07331464 -18.3125 31 C-18.32861328 30.24460937 -18.34472656 29.48921875 -18.36132812 28.7109375 C-18.36672312 22.43116012 -16.81822343 17.63644685 -14 12 C-14.86625 12.495 -15.7325 12.99 -16.625 13.5 C-20.10749623 15.0477761 -22.24759458 15.26802896 -26 15 C-26.33 14.34 -26.66 13.68 -27 13 C-26.34 13 -25.68 13 -25 13 C-25 12.01 -25 11.02 -25 10 C-25.66 9.67 -26.32 9.34 -27 9 C-25.2709226 8.97274659 -23.54171824 8.95349013 -21.8125 8.9375 C-20.84957031 8.92589844 -19.88664062 8.91429687 -18.89453125 8.90234375 C-16.14423487 8.99513378 -13.67520409 9.37888315 -11 10 C-10.855625 9.278125 -10.71125 8.55625 -10.5625 7.8125 C-8.23278018 3.61900432 -4.41164198 1.72844182 0 0 Z " fill="#6F4F13" transform="translate(125,42)"/>
<path d="M0 0 C0 21.45 0 42.9 0 65 C-6.93 64.505 -6.93 64.505 -14 64 C-14.36442738 58.07805508 -14.32089207 54.95756718 -11.0234375 49.859375 C-5.62217965 40.04640273 -7.10723462 25.36309356 -10 15 C-11.19774651 12.23878286 -12.57655847 9.65709086 -14 7 C-14 6.01 -14 5.02 -14 4 C-12.42032193 3.32471777 -10.83608097 2.66010306 -9.25 2 C-8.36828125 1.62875 -7.4865625 1.2575 -6.578125 0.875 C-4 0 -4 0 0 0 Z " fill="#6C4407" transform="translate(186,44)"/>
<path d="M0 0 C2.97 0 5.94 0 9 0 C9 19.14 9 38.28 9 58 C13.95 58 18.9 58 24 58 C22.35782486 62.92652542 21.00078155 65.934425 18 70 C17.67 70 17.34 70 17 70 C16.34 66.7 15.68 63.4 15 60 C10.05 60 5.1 60 0 60 C0 40.2 0 20.4 0 0 Z " fill="#946518" transform="translate(60,46)"/>
<path d="M0 0 C3.29869005 0.08471756 4.61159138 0.33209513 7.5625 2 C12.24328894 7.23146999 13.21625814 11.98792168 13.125 18.75 C13.12032715 19.50152344 13.1156543 20.25304687 13.11083984 21.02734375 C12.95837914 26.729126 12.04026217 30.6416887 8.6875 35.375 C5.47298731 36.98225635 2.25137464 36.43248185 -1.3125 36.375 C-2.8149118 30.77822933 -2.26874248 25.05682508 -2.00976562 19.32421875 C-1.92070992 15.13530233 -1.93377939 12.9834621 -4.19921875 9.34375 C-6.15462925 7.33624328 -6.15462925 7.33624328 -8.3125 6.375 C-6.26696407 1.99170872 -5.00092957 0.08404924 0 0 Z " fill="#6A4C11" transform="translate(148.3125,54.625)"/>
<path d="M0 0 C0.66 0 1.32 0 2 0 C5.84941627 8.82904329 5.42408431 17.97444996 5.33618164 27.40478516 C5.31249456 30.12562544 5.31564837 32.84548821 5.32226562 35.56640625 C5.31669012 37.3177141 5.30958105 39.06901788 5.30078125 40.8203125 C5.30214836 42.02374802 5.30214836 42.02374802 5.30354309 43.25149536 C5.2218575 49.83251426 4.38012951 56.20549226 1 62 C0.34 62 -0.32 62 -1 62 C-2.51891275 55.41290552 -3.30837482 49.19595067 -3.30078125 42.44140625 C-3.30506638 41.57160629 -3.3093515 40.70180634 -3.31376648 39.8056488 C-3.31946331 37.98136254 -3.32004474 36.15705359 -3.31567383 34.33276367 C-3.31251129 31.57235282 -3.3360405 28.81301356 -3.36132812 26.05273438 C-3.39231835 16.98302969 -3.29673204 8.60044169 0 0 Z " fill="#FCFBF3" transform="translate(167,136)"/>
<path d="M0 0 C-2.12012304 1.07230241 -4.24649325 2.11422858 -6.40234375 3.11328125 C-15.83049954 7.57313307 -20.41628452 13.10912871 -24.5625 22.5625 C-28.64247494 34.19762528 -29.49487367 45.68826682 -29.6875 57.875 C-29.72078587 59.35289255 -29.75528522 60.83075828 -29.79101562 62.30859375 C-29.87460017 65.87219781 -29.94199727 69.43587662 -30 73 C-30.33 73 -30.66 73 -31 73 C-31.04979311 67.89544055 -31.08590409 62.7910255 -31.10986328 57.6862793 C-31.11986161 55.95318129 -31.13346473 54.2200999 -31.15087891 52.48706055 C-31.17540084 49.98221716 -31.18654496 47.47759864 -31.1953125 44.97265625 C-31.20563507 44.20977798 -31.21595764 43.44689972 -31.22659302 42.66090393 C-31.22755243 37.96052086 -30.65738823 33.70580419 -29.52828979 29.1415863 C-28.94523941 26.77801098 -28.47743046 24.38715232 -28 22 C-31.3 22.66 -34.6 23.32 -38 24 C-35.27235312 14.4532359 -29.36190685 8.53398406 -21.25 3.1875 C-14.40763724 0.68740592 -7.2574613 -0.14039732 0 0 Z " fill="#956712" transform="translate(164,109)"/>
<path d="M0 0 C0 21.12 0 42.24 0 64 C-0.33 64 -0.66 64 -1 64 C-1 49.48 -1 34.96 -1 20 C-5.97621743 22.50056593 -5.97621743 22.50056593 -8 26 C-8.14695313 24.948125 -8.14695313 24.948125 -8.296875 23.875 C-9.30572027 17.4740507 -10.95059295 12.69222649 -14 7 C-14 6.01 -14 5.02 -14 4 C-12.42032193 3.32471777 -10.83608097 2.66010306 -9.25 2 C-8.36828125 1.62875 -7.4865625 1.2575 -6.578125 0.875 C-4 0 -4 0 0 0 Z " fill="#855C11" transform="translate(186,44)"/>
<path d="M0 0 C2.31 0 4.62 0 7 0 C7 11.88 7 23.76 7 36 C1 34 1 34 0 33 C-0.08843793 30.55169574 -0.11528752 28.13179401 -0.09765625 25.68359375 C-0.0962413 24.95253922 -0.09482635 24.22148468 -0.09336853 23.46827698 C-0.08775408 21.12464368 -0.07519922 18.78110461 -0.0625 16.4375 C-0.05748686 14.85221492 -0.05292363 13.26692834 -0.04882812 11.68164062 C-0.03777997 7.7877239 -0.02050572 3.89387795 0 0 Z " fill="#A77116" transform="translate(31,141)"/>
<path d="M0 0 C1.79824219 -0.04640625 1.79824219 -0.04640625 3.6328125 -0.09375 C6.875 0.5 6.875 0.5 9.3046875 3.03125 C10.08199219 4.25328125 10.08199219 4.25328125 10.875 5.5 C10.32070312 5.65855469 9.76640625 5.81710938 9.1953125 5.98046875 C6.98093587 6.69363987 4.9383188 7.42163997 2.875 8.5 C1.57839566 10.99034386 1.57839566 10.99034386 0.875 13.5 C-2.21750317 15.55932598 -4.71729721 15.72125534 -8.375 15.625 C-9.9425 15.58375 -11.51 15.5425 -13.125 15.5 C-13.125 11.54 -13.125 7.58 -13.125 3.5 C-8.6017793 0.89949391 -5.20910723 0.04500309 0 0 Z " fill="#D6D5D4" transform="translate(127.125,216.5)"/>
<path d="M0 0 C2.5625 2.3125 2.5625 2.3125 3.5625 5.3125 C5.35535152 6.44673026 5.35535152 6.44673026 7.5625 7.3125 C8.33207031 7.65410156 9.10164063 7.99570313 9.89453125 8.34765625 C14.83714989 10.39475657 19.22650849 11.84850074 24.5625 12.3125 C21.6821681 15.1928319 19.58011583 14.61284995 15.5625 14.625 C2.90567241 14.47889596 -3.52752371 11.35517806 -12.4375 2.3125 C-11.4375 0.3125 -11.4375 0.3125 -7.75 -1.0625 C-4.13735188 -1.90068634 -3.55738633 -1.74635329 0 0 Z " fill="#CE9F29" transform="translate(125.4375,95.6875)"/>
<path d="M0 0 C1.58624235 0.42683239 3.1689098 0.86696158 4.75 1.3125 C5.63171875 1.55613281 6.5134375 1.79976562 7.421875 2.05078125 C10.07452449 3.02743856 11.80171498 4.25348118 14 6 C18.63391439 7.89569225 23.06014444 8.48898046 28 9 C28 9.33 28 9.66 28 10 C20.80545274 11.72543362 14.01168346 12.31029946 6.625 12.25 C5.65433594 12.25773438 4.68367187 12.26546875 3.68359375 12.2734375 C2.74902344 12.27085937 1.81445312 12.26828125 0.8515625 12.265625 C-0.40406494 12.26224121 -0.40406494 12.26224121 -1.68505859 12.25878906 C-4.1905514 11.97869811 -5.8324918 11.25621914 -8 10 C-8 9.01 -8 8.02 -8 7 C-6.36368108 5.95107762 -4.69514137 4.95093297 -3 4 C-2.67 3.34 -2.34 2.68 -2 2 C-1.34 2 -0.68 2 0 2 C0 1.34 0 0.68 0 0 Z " fill="#9F9F9E" transform="translate(140,222)"/>
<path d="M0 0 C0.66 0.33 1.32 0.66 2 1 C1.401875 1.61875 0.80375 2.2375 0.1875 2.875 C-1.99050993 5.98644276 -2.36054995 7.4623471 -3.0625 11.0625 C-3.7421875 13.68359375 -3.7421875 13.68359375 -5 16 C-8.50626507 18.04445426 -12.0565021 19.10283749 -16 20 C-16.33 19.34 -16.66 18.68 -17 18 C-16.06553465 15.96855359 -15.06775224 13.96466413 -14 12 C-14.86625 12.495 -15.7325 12.99 -16.625 13.5 C-20.10749623 15.0477761 -22.24759458 15.26802896 -26 15 C-26.33 14.34 -26.66 13.68 -27 13 C-26.34 13 -25.68 13 -25 13 C-25 12.01 -25 11.02 -25 10 C-25.66 9.67 -26.32 9.34 -27 9 C-25.2709226 8.97274659 -23.54171824 8.95349013 -21.8125 8.9375 C-20.84957031 8.92589844 -19.88664062 8.91429687 -18.89453125 8.90234375 C-16.14423487 8.99513378 -13.67520409 9.37888315 -11 10 C-10.855625 9.278125 -10.71125 8.55625 -10.5625 7.8125 C-8.23278018 3.61900432 -4.41164198 1.72844182 0 0 Z " fill="#A07621" transform="translate(125,42)"/>
<path d="M0 0 C3.91593446 0.78318689 7.36406635 2.39179858 11 4 C11.33 3.01 11.66 2.02 12 1 C12.08636719 1.56847656 12.17273438 2.13695312 12.26171875 2.72265625 C13.66589974 10.43921047 16.54504249 15.4576225 23 20 C23 20.66 23 21.32 23 22 C15.78716688 21.45903752 10.42047891 17.85920841 5.6875 12.5625 C2.60983964 8.71332805 0 5.05555571 0 0 Z " fill="#C09528" transform="translate(126,203)"/>
<path d="M0 0 C3.43539252 1.42154173 5.20470155 2.7196388 7 6 C7.39598641 9.19441672 7.32714538 12.34891296 7.25 15.5625 C7.24484375 16.42552734 7.2396875 17.28855469 7.234375 18.17773438 C7.18987171 21.75746812 7.14093307 24.5772008 6 28 C3 27 3 27 1.375 24.1875 C-0.76456724 19.22759412 -1.13642338 15.36931778 -1.125 9.9375 C-1.12757813 8.70902344 -1.13015625 7.48054688 -1.1328125 6.21484375 C-1 3 -1 3 0 0 Z " fill="#FDF9EA" transform="translate(140,61)"/>
<path d="M0 0 C0.66 0.33 1.32 0.66 2 1 C-7.8198273 16.90415834 -19.21641782 27.0160423 -36.11328125 35.04296875 C-36.73589844 35.35878906 -37.35851563 35.67460937 -38 36 C-38.84933105 36.36432129 -39.69866211 36.72864258 -40.57373047 37.10400391 C-43.33790768 38.84002157 -43.33790768 38.84002157 -43.65942383 42.27807617 C-43.70045484 43.61583869 -43.71472082 44.95459923 -43.70703125 46.29296875 C-43.72215256 46.99899734 -43.73727386 47.70502594 -43.75285339 48.43244934 C-43.79579489 50.68445609 -43.80457333 52.93512434 -43.8125 55.1875 C-43.83563972 56.71553054 -43.86100398 58.24352912 -43.88867188 59.77148438 C-43.95158634 63.51444153 -43.9838713 67.25656064 -44 71 C-44.66 71 -45.32 71 -46 71 C-46 59.12 -46 47.24 -46 35 C-38.08 32.03 -38.08 32.03 -30 29 C-17.30929783 22.35951631 -6.73484279 12.69258833 0 0 Z " fill="#EABA30" transform="translate(84,105)"/>
<path d="M0 0 C0.20453151 3.37409559 0.32801449 6.74658992 0.4375 10.125 C0.49615234 11.07632813 0.55480469 12.02765625 0.61523438 13.0078125 C0.78471741 19.98082885 0.78471741 19.98082885 -1.55419922 23.01855469 C-6.13368056 27 -6.13368056 27 -8 27 C-8.1753252 23.62566415 -8.28118035 20.25250732 -8.375 16.875 C-8.42527344 15.92367187 -8.47554687 14.97234375 -8.52734375 13.9921875 C-8.67197544 7.04986639 -8.67197544 7.04986639 -6.70800781 3.98144531 C-2.85763889 0 -2.85763889 0 0 0 Z " fill="#A26E15" transform="translate(46,22)"/>
<path d="M0 0 C0 0.99 0 1.98 0 3 C-7.65300063 4.84330338 -14.92021047 5.10571868 -22.75 5 C-34.91758202 4.83833141 -46.90005548 5.79145195 -59 7 C-53.46142022 2.09440077 -49.32639688 1.86499257 -42.08203125 1.97265625 C-40.73112245 1.98531329 -39.38021085 1.99767344 -38.02929688 2.00976562 C-35.92756092 2.034423 -33.8259769 2.06228413 -31.72436523 2.09594727 C-24.35877181 2.20627046 -17.27647636 2.2523494 -10.08325195 0.44750977 C-6.69767501 -0.27975644 -3.44904437 -0.12774238 0 0 Z " fill="#DADAD9" transform="translate(176,233)"/>
<path d="M0 0 C1.9375 0.8125 1.9375 0.8125 4 2 C4.495 3.485 4.495 3.485 5 5 C0.38987758 7.95047835 -2.36529617 9.5497272 -8 9 C-8.309375 9.639375 -8.61875 10.27875 -8.9375 10.9375 C-10 13 -10 13 -11 14 C-13.65170095 14.02092661 -16.28730322 13.9937324 -18.9375 13.9375 C-24.79432113 13.85900338 -29.99817253 14.21598739 -35.70703125 15.62109375 C-39.84057496 16.30414953 -43.89133807 15.64689571 -48 15 C-48 14.67 -48 14.34 -48 14 C-47.30132812 13.93941406 -46.60265625 13.87882813 -45.8828125 13.81640625 C-44.51769531 13.69072266 -44.51769531 13.69072266 -43.125 13.5625 C-42.22007812 13.48128906 -41.31515625 13.40007812 -40.3828125 13.31640625 C-37.98889139 13.13010715 -37.98889139 13.13010715 -36 12 C-34.49149436 11.73635841 -32.97550594 11.51472613 -31.45703125 11.31640625 C-30.54759766 11.19330078 -29.63816406 11.07019531 -28.70117188 10.94335938 C-26.79509393 10.69205092 -24.8888466 10.44202347 -22.98242188 10.19335938 C-18.92868753 9.6427818 -14.99552216 9.09014182 -11.07421875 7.90234375 C-8 7 -8 7 -4 7 C-3.71125 6.21625 -3.4225 5.4325 -3.125 4.625 C-2 2 -2 2 0 0 Z " fill="#D3D2CE" transform="translate(196,220)"/>
<path d="M0 0 C0.33 0 0.66 0 1 0 C1.01417969 0.88042969 1.02835937 1.76085937 1.04296875 2.66796875 C0.97913659 10.0617513 0.97913659 10.0617513 4.4375 16.1875 C5.283125 16.785625 6.12875 17.38375 7 18 C7.66 18.66 8.32 19.32 9 20 C16.13846282 21.37032992 23.51099583 19.16834025 30.40234375 17.42333984 C35.41031408 16.19217726 39.84019013 15.81279601 45 16 C43.68 16.33 42.36 16.66 41 17 C41 17.66 41 18.32 41 19 C36.71 19.66 32.42 20.32 28 21 C28 21.33 28 21.66 28 22 C23.70838953 22.05783842 19.41687855 22.0935412 15.125 22.125 C13.90167969 22.14175781 12.67835937 22.15851563 11.41796875 22.17578125 C9.66806641 22.18544922 9.66806641 22.18544922 7.8828125 22.1953125 C6.80402832 22.20578613 5.72524414 22.21625977 4.61376953 22.22705078 C2 22 2 22 0 20 C-2.06874034 19.3574765 -2.06874034 19.3574765 -4 19 C-3.34 17.68 -2.68 16.36 -2 15 C-1.34 15 -0.68 15 0 15 C0 10.05 0 5.1 0 0 Z " fill="#D6CDBE" transform="translate(67,225)"/>
<path d="M0 0 C-2.12012304 1.07230241 -4.24649325 2.11422858 -6.40234375 3.11328125 C-11.4722432 5.51152336 -15.21421709 7.75533432 -19 12 C-19.99 12.66 -20.98 13.32 -22 14 C-22 13.34 -22 12.68 -22 12 C-24.97 12.66 -27.94 13.32 -31 14 C-29.58309508 8.3323803 -26.05563168 6.32147751 -21.375 3.3125 C-14.53379835 0.65203269 -7.30693864 -0.14135447 0 0 Z " fill="#A77C24" transform="translate(164,109)"/>
<path d="M0 0 C2.92991019 0.18129185 5.72692113 0.46569341 8.625 0.875 C9.42679688 0.97941406 10.22859375 1.08382812 11.0546875 1.19140625 C13.03777197 1.45109588 15.01908028 1.72428312 17 2 C16.01 2.495 16.01 2.495 15 3 C15 4.98 15 6.96 15 9 C12.45805839 8.85811015 9.91652007 8.71160845 7.375 8.5625 C6.30572266 8.50352539 6.30572266 8.50352539 5.21484375 8.44335938 C1.08196318 8.19690319 -2.92269024 7.76529947 -7 7 C-4.66666667 4.66666667 -2.33333333 2.33333333 0 0 Z " fill="#C69732" transform="translate(45,43)"/>
<path d="M0 0 C6.5251649 0.65251649 12.92202139 1.36566795 19.375 2.4375 C20.15488281 2.55931641 20.93476563 2.68113281 21.73828125 2.80664062 C25.47134246 3.42243619 28.72656368 3.97817168 32 6 C31.01 6.495 31.01 6.495 30 7 C29.01 6.67 28.02 6.34 27 6 C24.13569136 5.69760965 21.27080066 5.49234231 18.3984375 5.28125 C16 5 16 5 15 4 C10.38 3.34 5.76 2.68 1 2 C1 22.13 1 42.26 1 63 C3.97 63 6.94 63 10 63 C10 63.33 10 63.66 10 64 C6.7 64 3.4 64 0 64 C0 42.88 0 21.76 0 0 Z " fill="#FBCB42" transform="translate(186,44)"/>
<path d="M0 0 C0.33 0 0.66 0 1 0 C0.83773926 1.28914307 0.67547852 2.57828613 0.50830078 3.90649414 C-0.03137099 8.78418687 -0.14493203 13.59253868 -0.1328125 18.49609375 C-0.13376923 19.36968033 -0.13472595 20.24326691 -0.13571167 21.14332581 C-0.1363875 22.97779411 -0.13457524 24.8122649 -0.13037109 26.64672852 C-0.12502088 29.42665072 -0.13033322 32.2064109 -0.13671875 34.98632812 C-0.13605774 36.78125035 -0.13477609 38.57617248 -0.1328125 40.37109375 C-0.13483673 41.18807236 -0.13686096 42.00505096 -0.13894653 42.8467865 C-0.11596563 48.61392943 0.33682149 54.27222696 1 60 C-5.21230141 53.78769859 -4.29946588 37.16840949 -4.3125 28.75 C-4.10993119 7.04559633 -4.10993119 7.04559633 0 0 Z " fill="#F0CD5E" transform="translate(165,138)"/>
<path d="M0 0 C0.33 0 0.66 0 1 0 C1.74848332 18.29625885 1.74848332 18.29625885 -3 25 C-6.21451269 26.60725635 -9.43612536 26.05748185 -13 26 C-14.19600901 21.50832172 -13.9185704 17.26730207 -13.5625 12.6875 C-13.51029297 11.94693359 -13.45808594 11.20636719 -13.40429688 10.44335938 C-13.27549848 8.62847291 -13.13856738 6.81416675 -13 5 C-12.67 5 -12.34 5 -12 5 C-12 9.95 -12 14.9 -12 20 C-11.01 19.67 -10.02 19.34 -9 19 C-6.69 19 -4.38 19 -2 19 C-1.34 12.73 -0.68 6.46 0 0 Z " fill="#A37216" transform="translate(160,65)"/>
<path d="M0 0 C-0.1875 1.8125 -0.1875 1.8125 -1 4 C-7.7351807 9.00327709 -14.2138384 9.24791779 -22.25 8.75 C-23.16007812 8.71003906 -24.07015625 8.67007813 -25.0078125 8.62890625 C-31.74070349 8.25929651 -31.74070349 8.25929651 -34 6 C-28.06 5.505 -28.06 5.505 -22 5 C-22 4.67 -22 4.34 -22 4 C-17.38 3.67 -12.76 3.34 -8 3 C-8 2.34 -8 1.68 -8 1 C-2.25 -1.125 -2.25 -1.125 0 0 Z " fill="#D9DAD8" transform="translate(116,241)"/>
<path d="M0 0 C2.97 0 5.94 0 9 0 C9 19.14 9 38.28 9 58 C8.67 58 8.34 58 8 58 C8 41.17 8 24.34 8 7 C6.68 7.33 5.36 7.66 4 8 C1.75 7.0625 1.75 7.0625 0 6 C0 4.02 0 2.04 0 0 Z " fill="#875401" transform="translate(60,46)"/>
<path d="M0 0 C3.90230323 0.05664634 4.54187903 0.31862574 7.75 2.9375 C8.389375 3.7625 9.02875 4.5875 9.6875 5.4375 C-0.8434417 10.82225336 -0.8434417 10.82225336 -4.4453125 9.87890625 C-6.0625 8.75 -6.0625 8.75 -8.3125 6.4375 C-6.27313728 2.06743702 -4.98459771 0.14241708 0 0 Z " fill="#BE9631" transform="translate(148.3125,54.5625)"/>
<path d="M0 0 C0.99 0.33 1.98 0.66 3 1 C4.67422986 0.70700977 6.34178227 0.37309899 8 0 C10.62113708 0 12.50935112 0.31292445 15 1 C15 2.98 15 4.96 15 7 C9.31223269 8.1974247 3.80010731 8 -2 8 C-1.34 7.67 -0.68 7.34 0 7 C-0.66 5.02 -1.32 3.04 -2 1 C-1.34 0.67 -0.68 0.34 0 0 Z " fill="#8A8A8A" transform="translate(171,267)"/>
<path d="M0 0 C0 28.71 0 57.42 0 87 C-0.33 87 -0.66 87 -1 87 C-1.01030746 86.03391312 -1.02061493 85.06782623 -1.03123474 84.07246399 C-1.12902294 74.96466658 -1.23176211 65.85693666 -1.33933926 56.74924946 C-1.39448579 52.06698734 -1.44789245 47.38471889 -1.49731445 42.70239258 C-1.54508013 38.18306835 -1.59742712 33.66381821 -1.65294075 29.14458275 C-1.67330908 27.42105138 -1.69203113 25.69749973 -1.70907402 23.97393227 C-1.73324059 21.55847482 -1.76327794 19.14315596 -1.79467773 16.7277832 C-1.8004332 16.01640198 -1.80618866 15.30502075 -1.81211853 14.57208252 C-1.86585673 10.93140223 -2.14433733 7.54269055 -3 4 C-4.65 5.32 -6.3 6.64 -8 8 C-8 7.01 -8 6.02 -8 5 C-6.50390625 3.61328125 -6.50390625 3.61328125 -4.5625 2.3125 C-3.92441406 1.87550781 -3.28632812 1.43851563 -2.62890625 0.98828125 C-1 0 -1 0 0 0 Z " fill="#875707" transform="translate(77,156)"/>
<path d="M0 0 C0.99 1.32 1.98 2.64 3 4 C0.75157909 4.98293267 -1.49859547 5.96144466 -3.75 6.9375 C-4.38421875 7.21529297 -5.0184375 7.49308594 -5.671875 7.77929688 C-11.89891556 10.47119462 -14.98904519 11 -22 11 C-22 21.89 -22 32.78 -22 44 C-22.33 44 -22.66 44 -23 44 C-23 32.78 -23 21.56 -23 10 C-15.4375 7.25 -15.4375 7.25 -13.09936523 6.41113281 C-8.4230076 4.68290073 -4.26741211 2.57951323 0 0 Z " fill="#D7A947" transform="translate(53,130)"/>
<path d="M0 0 C6 0 6 0 8.4375 1.5625 C10 4 10 4 9.8125 7.6875 C9 11 9 11 8 12 C5.32941149 12.14115161 2.67567762 12.04247107 0 12 C0 8.04 0 4.08 0 0 Z " fill="#734A06" transform="translate(202,61)"/>
<path d="M0 0 C-0.55859375 1.86328125 -0.55859375 1.86328125 -2 4 C-4.4176072 4.94134273 -6.55932436 5.61063898 -9.0625 6.1875 C-9.74280273 6.35330566 -10.42310547 6.51911133 -11.12402344 6.68994141 C-20.56256463 8.92491249 -27.4953052 9.14965995 -37 7 C-37 6.67 -37 6.34 -37 6 C-35.72382813 5.93941406 -34.44765625 5.87882813 -33.1328125 5.81640625 C-31.46352984 5.73200432 -29.79425963 5.64735614 -28.125 5.5625 C-27.28324219 5.52318359 -26.44148437 5.48386719 -25.57421875 5.44335938 C-24.76855469 5.40146484 -23.96289062 5.35957031 -23.1328125 5.31640625 C-22.38918457 5.27974854 -21.64555664 5.24309082 -20.87939453 5.20532227 C-18.91135688 5.10044135 -18.91135688 5.10044135 -17 4 C-15.00039988 3.960008 -12.99952758 3.95653201 -11 4 C-11 3.34 -11 2.68 -11 2 C-7.17679443 0.57741188 -4.08718695 -0.24042276 0 0 Z " fill="#C3A650" transform="translate(194,223)"/>
<path d="M0 0 C0.33 0.66 0.66 1.32 1 2 C3.32115711 2.40961596 5.65834501 2.73128549 8 3 C10.00097458 3.3274322 12.00133314 3.65876419 14 4 C12.25 8.875 12.25 8.875 10 10 C6.10059112 10.36105638 3.83081139 10.5400274 0.5 8.375 C-1 6 -1 6 -0.75 2.75 C-0.5025 1.8425 -0.255 0.935 0 0 Z " fill="#B28624" transform="translate(168,196)"/>
<path d="M0 0 C0 0.66 0 1.32 0 2 C-1.30710937 2.16435547 -1.30710937 2.16435547 -2.640625 2.33203125 C-8.62333075 3.12843039 -14.42532261 4.02473056 -20.25 5.625 C-25.48218788 6.98019953 -30.62102174 8.10136301 -36 7 C-38.25837928 5.53179857 -39.35561588 4.19251216 -41 2 C-39.35 2 -37.7 2 -36 2 C-35.67 2.66 -35.34 3.32 -35 4 C-26.78801517 3.58583033 -18.88999019 2.57871454 -10.82641602 1.01635742 C-7.16524634 0.31942224 -3.7298523 -0.16755196 0 0 Z " fill="#64593D" transform="translate(112,239)"/>
<path d="M0 0 C0.66 0.33 1.32 0.66 2 1 C-6.88951274 15.39742409 -18.26347468 28.59407502 -35 34 C-35.99 33.67 -36.98 33.34 -38 33 C-36.91203125 32.47792969 -35.8240625 31.95585937 -34.703125 31.41796875 C-20.40193632 24.34082265 -7.01435446 14.9305545 0 0 Z " fill="#F9D144" transform="translate(84,105)"/>
<path d="M0 0 C0.66 1.32 1.32 2.64 2 4 C2.66 3.67 3.32 3.34 4 3 C4 4.32 4 5.64 4 7 C4.99 7.66 5.98 8.32 7 9 C6.195625 8.814375 5.39125 8.62875 4.5625 8.4375 C3.716875 8.293125 2.87125 8.14875 2 8 C1.67 8.33 1.34 8.66 1 9 C-0.99954746 9.04254356 -3.00041636 9.04080783 -5 9 C-5.66 9 -6.32 9 -7 9 C-8.32 9 -9.64 9 -11 9 C-11.625 7.125 -11.625 7.125 -12 5 C-11.34 4.34 -10.68 3.68 -10 3 C-8.32995171 3.31595508 -6.66362417 3.65179959 -5 4 C-2.27497035 3.62277985 -2.27497035 3.62277985 0 3 C0 2.01 0 1.02 0 0 Z " fill="#969696" transform="translate(113,266)"/>
<path d="M0 0 C3.74371319 1.00278032 5.18578186 1.88273206 7.5 4.9375 C7.5 5.5975 7.5 6.2575 7.5 6.9375 C2.88 6.9375 -1.74 6.9375 -6.5 6.9375 C-6.83 5.6175 -7.16 4.2975 -7.5 2.9375 C-4.87928566 0.31678566 -3.78465212 -0.06758307 0 0 Z " fill="#C0962E" transform="translate(175.5,131.0625)"/>
<path d="M0 0 C3.33034036 1.16376206 6.59693752 1.42146206 10.1015625 1.734375 C10.1015625 2.064375 10.1015625 2.394375 10.1015625 2.734375 C6.55996593 2.79278753 3.01849457 2.82810952 -0.5234375 2.859375 C-1.52246094 2.87613281 -2.52148438 2.89289063 -3.55078125 2.91015625 C-8.73932459 2.94451746 -13.04767399 2.83692437 -17.8984375 0.734375 C-12.81902888 -4.34503362 -5.97671158 -2.44606729 0 0 Z " fill="#5C5749" transform="translate(157.8984375,229.265625)"/>
<path d="M0 0 C0.33 0.66 0.66 1.32 1 2 C1.7425 1.67 2.485 1.34 3.25 1 C6 0 6 0 10 0 C11 3 11 3 9.91796875 5.171875 C8 7 8 7 5.30078125 7.390625 C4.31464844 7.34421875 3.32851562 7.2978125 2.3125 7.25 C1.31863281 7.21390625 0.32476562 7.1778125 -0.69921875 7.140625 C-1.45847656 7.09421875 -2.21773437 7.0478125 -3 7 C-3 7.66 -3 8.32 -3 9 C-3.66 8.67 -4.32 8.34 -5 8 C-3.35 5.36 -1.7 2.72 0 0 Z " fill="#B88A22" transform="translate(132,121)"/>
<path d="M0 0 C0.33 0.99 0.66 1.98 1 3 C2.98 3 4.96 3 7 3 C7 4.65 7 6.3 7 8 C7.66 8 8.32 8 9 8 C9 6.35 9 4.7 9 3 C9.99 3 10.98 3 12 3 C12.33 2.34 12.66 1.68 13 1 C13 1.66 13 2.32 13 3 C13.99 3 14.98 3 16 3 C16.33 2.34 16.66 1.68 17 1 C17 1.66 17 2.32 17 3 C17.66 3.33 18.32 3.66 19 4 C18.34 4 17.68 4 17 4 C17 5.32 17 6.64 17 8 C17.66 8.33 18.32 8.66 19 9 C18.01 9 17.02 9 16 9 C16 7.35 16 5.7 16 4 C15.01 4 14.02 4 13 4 C13 5.32 13 6.64 13 8 C13.66 8.33 14.32 8.66 15 9 C11.04 9 7.08 9 3 9 C3 7.35 3 5.7 3 4 C2.34 4 1.68 4 1 4 C1 5.65 1 7.3 1 9 C0.67 9 0.34 9 0 9 C0 6.03 0 3.06 0 0 Z " fill="#747374" transform="translate(63,266)"/>
<path d="M0 0 C12.71734344 1.74720681 25.37635738 3.66719055 38 6 C38 6.33 38 6.66 38 7 C30.2300533 7.33836865 23.55824178 6.8544081 16.078125 4.734375 C10.78974883 3.47268119 5.41695526 3.25337371 0 3 C0 2.01 0 1.02 0 0 Z " fill="#BA9036" transform="translate(75,26)"/>
<path d="M0 0 C-1.32 0.33 -2.64 0.66 -4 1 C-4 1.66 -4 2.32 -4 3 C-8.29 3.66 -12.58 4.32 -17 5 C-17 5.33 -17 5.66 -17 6 C-23.27 6 -29.54 6 -36 6 C-36 5.67 -36 5.34 -36 5 C-35.06800781 4.89042969 -34.13601562 4.78085938 -33.17578125 4.66796875 C-26.69621127 3.86211728 -20.41147375 2.94733974 -14.0625 1.375 C-9.19320876 0.17871734 -4.99772711 -0.29398395 0 0 Z " fill="#BABBBA" transform="translate(112,241)"/>
<path d="M0 0 C3.3 0 6.6 0 10 0 C6 2 6 2 1 3 C0.67 9.6 0.34 16.2 0 23 C-2.26875 23.185625 -4.5375 23.37125 -6.875 23.5625 C-8.15117187 23.66691406 -9.42734375 23.77132812 -10.7421875 23.87890625 C-14 24 -14 24 -16 23 C-16 22.34 -16 21.68 -16 21 C-11.05 21 -6.1 21 -1 21 C-1.01740234 18.97746094 -1.01740234 18.97746094 -1.03515625 16.9140625 C-1.04453401 15.15104305 -1.05363423 13.3880221 -1.0625 11.625 C-1.07087891 10.73554687 -1.07925781 9.84609375 -1.08789062 8.9296875 C-1.09111328 8.07890625 -1.09433594 7.228125 -1.09765625 6.3515625 C-1.10289307 5.56604004 -1.10812988 4.78051758 -1.11352539 3.97119141 C-1 2 -1 2 0 0 Z " fill="#C19A32" transform="translate(202,87)"/>
<path d="M0 0 C2 1 2 1 3 2 C3.66 1.34 4.32 0.68 5 0 C7.125 0.375 7.125 0.375 9 1 C9 2.98 9 4.96 9 7 C5.2319266 8.03946852 1.92250084 8 -2 8 C-2.6875 6.25 -2.6875 6.25 -3 4 C-1.5625 1.75 -1.5625 1.75 0 0 Z " fill="#636363" transform="translate(159,267)"/>
<path d="M0 0 C0.33 0 0.66 0 1 0 C1.33774332 2.22850277 1.6700187 4.45783467 2 6.6875 C2.185625 7.92886719 2.37125 9.17023438 2.5625 10.44921875 C2.92100411 13.35886371 3.08942256 16.07700022 3 19 C-1.43096513 17.8705383 -5.33523246 16.8024693 -9 14 C-9.8125 11.8125 -9.8125 11.8125 -10 10 C-6.50196889 10.64778354 -4.02054424 12.17177585 -1 14 C-0.34 14 0.32 14 1 14 C0.66226563 13.44828125 0.32453125 12.8965625 -0.0234375 12.328125 C-1.21101261 9.49694595 -1.02275703 7.77295344 -0.625 4.75 C-0.51414063 3.85796875 -0.40328125 2.9659375 -0.2890625 2.046875 C-0.19367188 1.37140625 -0.09828125 0.6959375 0 0 Z " fill="#93690F" transform="translate(134,188)"/>
<path d="M0 0 C3.63 0 7.26 0 11 0 C9.68315519 4.60895683 7.84801255 8.14140235 5 12 C4.67 12 4.34 12 4 12 C3.34 8.7 2.68 5.4 2 2 C1.34 2 0.68 2 0 2 C0 1.34 0 0.68 0 0 Z " fill="#784404" transform="translate(73,104)"/>
<path d="M0 0 C-4.4908651 1.49695503 -9.06564239 1.00355173 -13.75195312 0.87304688 C-19.19318123 0.71226344 -19.19318123 0.71226344 -24 3 C-25.96222635 4.93340503 -25.96222635 4.93340503 -27.75 7.125 C-28.36359375 7.84945312 -28.9771875 8.57390625 -29.609375 9.3203125 C-30.06828125 9.87460937 -30.5271875 10.42890625 -31 11 C-31 7.67431601 -30.53878711 5.93475266 -29 3 C-20.652853 -3.05841315 -9.42158651 -4.18737178 0 0 Z " fill="#D2AC44" transform="translate(156,38)"/>
<path d="M0 0 C0 0.99 0 1.98 0 3 C-8.11094631 4.74011437 -15.7815522 5.59481616 -24 4 C-24.99 3.34 -25.98 2.68 -27 2 C-25.72125 2.04125 -24.4425 2.0825 -23.125 2.125 C-18.70743953 2.13886989 -14.73831336 1.40018075 -10.44140625 0.4453125 C-6.90715869 -0.19933426 -3.58360217 -0.13272601 0 0 Z " fill="#E1DFDF" transform="translate(176,233)"/>
<path d="M0 0 C-2 2 -2 2 -5.265625 2.265625 C-6.58046875 2.26046875 -7.8953125 2.2553125 -9.25 2.25 C-10.55453125 2.25515625 -11.8590625 2.2603125 -13.203125 2.265625 C-16.83047536 2.01185975 -19.63032995 1.31856654 -23 0 C-23 -0.33 -23 -0.66 -23 -1 C-15.06458207 -4.07699879 -7.96595867 -1.92925561 0 0 Z " fill="#7F5B1F" transform="translate(150,108)"/>
<path d="M0 0 C1.74965358 -0.05429959 3.49979787 -0.09292823 5.25 -0.125 C6.22453125 -0.14820313 7.1990625 -0.17140625 8.203125 -0.1953125 C11.0196498 0.00137219 12.60949036 0.55431084 15 2 C10.22642128 4.71391278 6.65611463 6.56561146 1 6 C0.67 5.34 0.34 4.68 0 4 C0.66 4 1.32 4 2 4 C2 3.01 2 2.02 2 1 C1.34 0.67 0.68 0.34 0 0 Z " fill="#9C701C" transform="translate(98,51)"/>
<path d="M0 0 C0.66 0.33 1.32 0.66 2 1 C1.071875 2.051875 1.071875 2.051875 0.125 3.125 C-2.0427009 6.05777181 -3.02655555 8.51182406 -4 12 C-4.66 12 -5.32 12 -6 12 C-6 12.66 -6 13.32 -6 14 C-6.66 14 -7.32 14 -8 14 C-8 12.02 -8 10.04 -8 8 C-8.99 8.66 -9.98 9.32 -11 10 C-10.38635566 6.93177829 -9.48248059 5.34567135 -6.93359375 3.51953125 C-4.64582499 2.20856264 -2.45621072 0.96232137 0 0 Z " fill="#B38119" transform="translate(125,42)"/>
<path d="M0 0 C6.51102892 0.52508298 12.92931143 1.39776833 19.375 2.4375 C20.55231689 2.62082886 20.55231689 2.62082886 21.75341797 2.80786133 C25.48086067 3.42482566 28.73110339 3.98097562 32 6 C31.01 6.495 31.01 6.495 30 7 C29.01 6.67 28.02 6.34 27 6 C24.13569136 5.69760965 21.27080066 5.49234231 18.3984375 5.28125 C16 5 16 5 15 4 C12.65276034 3.602507 10.29671452 3.25631277 7.9375 2.9375 C6.00197266 2.67259766 6.00197266 2.67259766 4.02734375 2.40234375 C2.52880859 2.20318359 2.52880859 2.20318359 1 2 C0.67 3.32 0.34 4.64 0 6 C0 4.02 0 2.04 0 0 Z " fill="#EFC852" transform="translate(186,44)"/>
<path d="M0 0 C2.01822917 0.06510417 4.03645833 0.13020833 6.0546875 0.1953125 C7.1796875 3.9453125 7.1796875 3.9453125 6.0546875 6.1953125 C3.0846875 6.1953125 0.1146875 6.1953125 -2.9453125 6.1953125 C-3.2753125 4.8753125 -3.6053125 3.5553125 -3.9453125 2.1953125 C-1.9453125 0.1953125 -1.9453125 0.1953125 0 0 Z " fill="#8F8F8F" transform="translate(124.9453125,268.8046875)"/>
<path d="M0 0 C-0.55816406 0.27457031 -1.11632812 0.54914063 -1.69140625 0.83203125 C-3.27659339 1.63401256 -4.84653817 2.46662836 -6.40234375 3.32421875 C-7.65724609 3.99904297 -7.65724609 3.99904297 -8.9375 4.6875 C-10.18853516 5.37392578 -10.18853516 5.37392578 -11.46484375 6.07421875 C-14.43145879 7.15755891 -16.01209867 6.88193867 -19 6 C-18.67 4.68 -18.34 3.36 -18 2 C-16.12612523 1.6603981 -14.25083303 1.32861309 -12.375 1 C-11.33085937 0.814375 -10.28671875 0.62875 -9.2109375 0.4375 C-6.09425135 0.01284203 -3.14069188 -0.07545206 0 0 Z " fill="#5F3B0C" transform="translate(164,109)"/>
<path d="M0 0 C2.39763185 2.39763185 2.34280586 3.33273498 2.625 6.625 C2.69976562 7.44226563 2.77453125 8.25953125 2.8515625 9.1015625 C2.92503906 10.04128906 2.92503906 10.04128906 3 11 C1.02 11.33 -0.96 11.66 -3 12 C-3.88336837 9.5332355 -4.1312406 8.36140628 -3.22265625 5.859375 C-2.83980469 5.16328125 -2.45695312 4.4671875 -2.0625 3.75 C-1.68222656 3.04359375 -1.30195312 2.3371875 -0.91015625 1.609375 C-0.60980469 1.07828125 -0.30945313 0.5471875 0 0 Z " fill="#C0912B" transform="translate(74,106)"/>
<path d="M0 0 C0.99 0 1.98 0 3 0 C3.66 1.98 4.32 3.96 5 6 C4.01 5.67 3.02 5.34 2 5 C-0.30336625 5.31052686 -0.30336625 5.31052686 -2.6875 5.9375 C-3.89986328 6.22947266 -3.89986328 6.22947266 -5.13671875 6.52734375 C-5.75160156 6.68332031 -6.36648437 6.83929688 -7 7 C-7.66 5.68 -8.32 4.36 -9 3 C-7.06729418 1.06729418 -3.61358612 1.37336945 -1 1 C-0.67 0.67 -0.34 0.34 0 0 Z " fill="#976D18" transform="translate(120,90)"/>
<path d="M0 0 C0.99 0.33 1.98 0.66 3 1 C3 1.66 3 2.32 3 3 C4.32 3.33 5.64 3.66 7 4 C7.103125 4.928125 7.20625 5.85625 7.3125 6.8125 C8.02570928 10.11919757 8.55594822 10.87473758 11 13 C11 13.66 11 14.32 11 15 C11.66 15.33 12.32 15.66 13 16 C10 16 10 16 8.28125 14.4609375 C0 4.76315789 0 4.76315789 0 0 Z " fill="#BB9943" transform="translate(126,204)"/>
<path d="M0 0 C2.5072528 3.7608792 2.17475002 5.71096924 2.0625 10.1875 C1.96948074 15.56259198 2.13293966 20.68925539 3 26 C2.34 26.33 1.68 26.66 1 27 C-1.37903243 18.0786284 -2.02028129 9.0912658 0 0 Z " fill="#DBAB30" transform="translate(119,58)"/>
<path d="M0 0 C0 1.98 0 3.96 0 6 C-4.455 6.495 -4.455 6.495 -9 7 C-8.34 6.67 -7.68 6.34 -7 6 C-7.66 4.02 -8.32 2.04 -9 0 C-5.93109813 -1.53445094 -3.29905734 -0.54984289 0 0 Z " fill="#B3B3B3" transform="translate(178,268)"/>
<path d="M0 0 C-7.28028274 4.71077119 -12.94089118 5.22657695 -21.375 4.625 C-22.30183594 4.56828125 -23.22867188 4.5115625 -24.18359375 4.453125 C-26.45660878 4.31252613 -28.72836963 4.16121248 -31 4 C-31 3.67 -31 3.34 -31 3 C-29.45892578 2.94392578 -29.45892578 2.94392578 -27.88671875 2.88671875 C-20.32960169 2.54853136 -13.46388144 1.97069279 -6.234375 -0.4765625 C-3.76234928 -1.05567342 -2.37512387 -0.81712977 0 0 Z " fill="#E7E8E7" transform="translate(115,245)"/>
<path d="M0 0 C1.2065625 0.0309375 1.2065625 0.0309375 2.4375 0.0625 C2.1075 0.7225 1.7775 1.3825 1.4375 2.0625 C0.4475 2.0625 -0.5425 2.0625 -1.5625 2.0625 C-1.5625 8.0025 -1.5625 13.9425 -1.5625 20.0625 C-2.2225 20.3925 -2.8825 20.7225 -3.5625 21.0625 C-3.59138146 17.75001813 -3.60925799 14.43756833 -3.625 11.125 C-3.63337891 10.17947266 -3.64175781 9.23394531 -3.65039062 8.25976562 C-3.65361328 7.36064453 -3.65683594 6.46152344 -3.66015625 5.53515625 C-3.66539307 4.70250244 -3.67062988 3.86984863 -3.67602539 3.01196289 C-3.50016074 -0.00799247 -3.04049625 0.07415845 0 0 Z " fill="#FCF3D1" transform="translate(205.5625,88.9375)"/>
<path d="M0 0 C2.875 -0.125 2.875 -0.125 6 0 C6.66 0.66 7.32 1.32 8 2 C7.625 4.125 7.625 4.125 7 6 C5.0085944 6.38133299 3.00720923 6.71325582 1 7 C0 6 0 6 -0.0625 2.9375 C-0.041875 1.968125 -0.02125 0.99875 0 0 Z " fill="#794200" transform="translate(60,46)"/>
<path d="M0 0 C6.93 0.495 6.93 0.495 14 1 C13.01 1.495 13.01 1.495 12 2 C12 3.65 12 5.3 12 7 C6.25 6.25 6.25 6.25 4 4 C4 3.34 4 2.68 4 2 C2.68 1.34 1.36 0.68 0 0 Z " fill="#C79123" transform="translate(48,44)"/>
<path d="M0 0 C0.12375 0.804375 0.2475 1.60875 0.375 2.4375 C0.684375 3.7059375 0.684375 3.7059375 1 5 C1.66 5.33 2.32 5.66 3 6 C3 6.66 3 7.32 3 8 C3.99 8.33 4.98 8.66 6 9 C6 9.66 6 10.32 6 11 C7.32 11.33 8.64 11.66 10 12 C7 13 7 13 3.5625 11.4375 C-0.66920103 8.86985054 -2.81189377 5.37621246 -5 1 C-1.125 0 -1.125 0 0 0 Z " fill="#B08429" transform="translate(138,212)"/>
<path d="M0 0 C0.94875 0.165 1.8975 0.33 2.875 0.5 C7.5763877 1.18541792 12.26003286 1.08583441 17 1 C16 3 16 3 13.92578125 3.7734375 C7.00295883 5.3670319 7.00295883 5.3670319 4.00390625 4.26953125 C2.375 3.1875 2.375 3.1875 0 1 C0 0.67 0 0.34 0 0 Z " fill="#C19630" transform="translate(119,103)"/>
<path d="M0 0 C0.33 0 0.66 0 1 0 C1.66 5.94 2.32 11.88 3 18 C1.02 18 -0.96 18 -3 18 C-1.68 17.34 -0.36 16.68 1 16 C0.67 15.01 0.34 14.02 0 13 C-1.18140964 8.89439204 -1.22027019 5.25855709 -1 1 C-0.67 0.67 -0.34 0.34 0 0 Z " fill="#7B4D05" transform="translate(183,91)"/>
<path d="M0 0 C0.92188461 2.76565382 1.11785222 4.38283702 1.09765625 7.23046875 C1.09282227 8.43413086 1.09282227 8.43413086 1.08789062 9.66210938 C1.07532227 10.91217773 1.07532227 10.91217773 1.0625 12.1875 C1.05798828 13.03248047 1.05347656 13.87746094 1.04882812 14.74804688 C1.03705403 16.83206155 1.0191189 18.91603977 1 21 C0.67 20.34 0.34 19.68 0 19 C-0.66 19 -1.32 19 -2 19 C-2 13.39 -2 7.78 -2 2 C-1.34 2 -0.68 2 0 2 C0 1.34 0 0.68 0 0 Z " fill="#EBC552" transform="translate(139,61)"/>
<path d="M0 0 C7.78808563 0.51648735 15.34925042 1.44876534 23 3 C23 3.33 23 3.66 23 4 C15.74 3.67 8.48 3.34 1 3 C0.67 2.01 0.34 1.02 0 0 Z " fill="#C69937" transform="translate(46,22)"/>
<path d="M0 0 C1.65 0 3.3 0 5 0 C5.33 0.66 5.66 1.32 6 2 C6.59167969 1.98839844 7.18335937 1.97679687 7.79296875 1.96484375 C12.00231785 1.91677614 15.8922333 1.93993117 20 3 C20 3.33 20 3.66 20 4 C15.13387559 5.29763318 9.98423712 5.76806277 5 5 C2.71581841 3.5482757 1.65205532 2.20274043 0 0 Z " fill="#796D54" transform="translate(71,241)"/>
<path d="M0 0 C0.66 0.66 1.32 1.32 2 2 C4.58354218 2.16687448 4.58354218 2.16687448 7 2 C4.45780339 5.81329491 2.21897648 6.35531425 -2 8 C-2.969375 8.391875 -3.93875 8.78375 -4.9375 9.1875 C-5.618125 9.455625 -6.29875 9.72375 -7 10 C-4.75421558 6.59260295 -2.48862878 3.23521742 0 0 Z " fill="#CD9D31" transform="translate(69,115)"/>
<path d="M0 0 C2.31 0 4.62 0 7 0 C7.125 4.75 7.125 4.75 6 7 C3.03 6.505 3.03 6.505 0 6 C0 4.02 0 2.04 0 0 Z " fill="#B38323" transform="translate(93,50)"/>
<path d="M0 0 C0 5.28 0 10.56 0 16 C-0.33 16 -0.66 16 -1 16 C-1.66 12.04 -2.32 8.08 -3 4 C-4.65 5.32 -6.3 6.64 -8 8 C-8 7.01 -8 6.02 -8 5 C-6.50390625 3.61328125 -6.50390625 3.61328125 -4.5625 2.3125 C-3.92441406 1.87550781 -3.28632812 1.43851563 -2.62890625 0.98828125 C-1 0 -1 0 0 0 Z " fill="#784B04" transform="translate(77,156)"/>
<path d="M0 0 C3.125 0.375 3.125 0.375 6 1 C6 2.32 6 3.64 6 5 C6.66 5.33 7.32 5.66 8 6 C7.443125 5.814375 6.88625 5.62875 6.3125 5.4375 C3.600867 4.92448835 1.65628961 5.3359276 -1 6 C-1.625 4.125 -1.625 4.125 -2 2 C-1.34 1.34 -0.68 0.68 0 0 Z " fill="#878787" transform="translate(103,269)"/>
<path d="M0 0 C2.10821106 0.45175951 3.82305043 0.89514099 5.6875 2 C8.87232037 3.37721962 11.79652203 3.43314011 15.25 3.625 C16.51328125 3.69976562 17.7765625 3.77453125 19.078125 3.8515625 C20.04234375 3.90054688 21.0065625 3.94953125 22 4 C22 4.33 22 4.66 22 5 C18.91684615 5.08733513 15.83401173 5.14050127 12.75 5.1875 C11.44095703 5.22520508 11.44095703 5.22520508 10.10546875 5.26367188 C3.58401668 5.33834499 3.58401668 5.33834499 0.390625 3.48828125 C-0.06828125 2.99714844 -0.5271875 2.50601563 -1 2 C-0.67 1.34 -0.34 0.68 0 0 Z " fill="#7F807F" transform="translate(138,228)"/>
<path d="M0 0 C0 1.98 0 3.96 0 6 C-4.95 6.33 -9.9 6.66 -15 7 C-15 6.67 -15 6.34 -15 6 C-14.32453125 5.81824219 -13.6490625 5.63648437 -12.953125 5.44921875 C-12.06109375 5.19785156 -11.1690625 4.94648437 -10.25 4.6875 C-9.36828125 4.44386719 -8.4865625 4.20023437 -7.578125 3.94921875 C-5.20796053 3.07656728 -2.31952518 0 0 0 Z " fill="#F9E9BE" transform="translate(171,102)"/>
<path d="M0 0 C0.33 0 0.66 0 1 0 C1 7.59 1 15.18 1 23 C0.34 23.33 -0.32 23.66 -1 24 C-1.33 16.74 -1.66 9.48 -2 2 C-1.34 2 -0.68 2 0 2 C0 1.34 0 0.68 0 0 Z " fill="#7E5002" transform="translate(118,57)"/>
<path d="M0 0 C2.47923801 -0.02685095 4.9581884 -0.04676547 7.4375 -0.0625 C8.14455078 -0.07087891 8.85160156 -0.07925781 9.58007812 -0.08789062 C11.38693559 -0.09653588 13.19387603 -0.05220011 15 0 C15.33 0.33 15.66 0.66 16 1 C17.155 1.144375 18.31 1.28875 19.5 1.4375 C20.655 1.623125 21.81 1.80875 23 2 C23.33 2.66 23.66 3.32 24 4 C22.9378125 3.86722656 21.875625 3.73445313 20.78125 3.59765625 C20.09546875 3.51193359 19.4096875 3.42621094 18.703125 3.33789062 C15.13541667 2.89192708 11.56770833 2.44596354 8 2 C6.85337891 1.85667236 6.85337891 1.85667236 5.68359375 1.71044922 C2.84179688 1.35522461 2.84179688 1.35522461 0 1 C0 0.67 0 0.34 0 0 Z " fill="#F5EBCC" transform="translate(44,21)"/>
<path d="M0 0 C2.0625 0.4375 2.0625 0.4375 4 1 C4 2.98 4 4.96 4 7 C2.35 7.33 0.7 7.66 -1 8 C-1.04241723 5.66705225 -1.04092937 3.33297433 -1 1 C-0.67 0.67 -0.34 0.34 0 0 Z " fill="#858585" transform="translate(194,267)"/>
<path d="M0 0 C1.9375 0.8125 1.9375 0.8125 4 2 C4.33 2.99 4.66 3.98 5 5 C-1.75 7 -1.75 7 -4 7 C-2.92598892 4.08482708 -2.22189824 2.22189824 0 0 Z " fill="#B9B6AC" transform="translate(196,220)"/>
<path d="M0 0 C0.66 0.99 1.32 1.98 2 3 C5.77400513 8.68185361 5.77400513 8.68185361 11 13 C10.67 13.66 10.34 14.32 10 15 C7.13302508 13.71480435 5.02392288 12.42870746 3 10 C3 9.34 3 8.68 3 8 C2.01 7.67 1.02 7.34 0 7 C-0.38133299 5.0085944 -0.71325582 3.00720923 -1 1 C-0.67 0.67 -0.34 0.34 0 0 Z " fill="#CE9E2A" transform="translate(138,210)"/>
<path d="M0 0 C0.33 0 0.66 0 1 0 C1 4.95 1 9.9 1 15 C5.455 14.505 5.455 14.505 10 14 C9.67 14.66 9.34 15.32 9 16 C6.0170339 16.59772099 3.03669195 16.74337815 0 17 C0 11.39 0 5.78 0 0 Z " fill="#907541" transform="translate(147,70)"/>
<path d="M0 0 C0.33 0 0.66 0 1 0 C1.05392397 2.77109307 1.09363455 5.54113818 1.125 8.3125 C1.14175781 9.09818359 1.15851563 9.88386719 1.17578125 10.69335938 C1.18222656 11.45068359 1.18867188 12.20800781 1.1953125 12.98828125 C1.20578613 13.68477783 1.21625977 14.38127441 1.22705078 15.09887695 C1 17 1 17 -1 20 C-1.66 19.67 -2.32 19.34 -3 19 C-2.86722656 18.21496094 -2.73445312 17.42992188 -2.59765625 16.62109375 C-1.66757357 11.08812013 -0.75808113 5.55926159 0 0 Z " fill="#926608" transform="translate(160,65)"/>
<path d="M0 0 C1.23556641 0.01740234 1.23556641 0.01740234 2.49609375 0.03515625 C3.32238281 0.04417969 4.14867187 0.05320313 5 0.0625 C5.63808594 0.07410156 6.27617187 0.08570313 6.93359375 0.09765625 C7.26359375 0.75765625 7.59359375 1.41765625 7.93359375 2.09765625 C3.61299552 3.19611343 -0.68308568 4.27578364 -5.06640625 5.09765625 C-2.6606399 0.12573913 -2.6606399 0.12573913 0 0 Z " fill="#8E5C06" transform="translate(146.06640625,54.90234375)"/>
<path d="M0 0 C-2.05233685 2.2477975 -3.00667261 3.0022242 -6 4 C-7.22520264 7.00847418 -7.22520264 7.00847418 -8 10 C-8.33 10 -8.66 10 -9 10 C-9.25 3.375 -9.25 3.375 -7 0 C-4.02096037 -1.15317663 -3.13440869 -1.0448029 0 0 Z " fill="#755A22" transform="translate(116,61)"/>
<path d="M0 0 C0.66 0 1.32 0 2 0 C2.33 1.32 2.66 2.64 3 4 C4.1446875 4.185625 4.1446875 4.185625 5.3125 4.375 C8 5 8 5 11 7 C7.625 7.125 7.625 7.125 4 7 C3.34 6.34 2.68 5.68 2 5 C-0.06874034 4.3574765 -0.06874034 4.3574765 -2 4 C-1.34 2.68 -0.68 1.36 0 0 Z " fill="#D5D5D4" transform="translate(65,240)"/>
<path d="M0 0 C3.4375 0.8125 3.4375 0.8125 7 2 C7.33 2.99 7.66 3.98 8 5 C6.02 5.66 4.04 6.32 2 7 C1.814375 6.071875 1.814375 6.071875 1.625 5.125 C1.12802644 2.80879168 1.12802644 2.80879168 -1 1 C-0.67 0.67 -0.34 0.34 0 0 Z " fill="#E3E2DF" transform="translate(198,219)"/>
<path d="M0 0 C4.33640191 2.15726885 5.9338281 4.06275589 7.8125 8.5 C8.23144531 9.4590625 8.65039062 10.418125 9.08203125 11.40625 C10 14 10 14 10 17 C9.34 17 8.68 17 8 17 C7.75765625 16.33613281 7.5153125 15.67226563 7.265625 14.98828125 C5.36952344 9.9927829 3.55690519 6.06503451 0 2 C0 1.34 0 0.68 0 0 Z " fill="#EDC547" transform="translate(167,45)"/>
<path d="M0 0 C1.32 0.33 2.64 0.66 4 1 C4 2.98 4 4.96 4 7 C2.68 7.33 1.36 7.66 0 8 C0 5.36 0 2.72 0 0 Z " fill="#A4A4A4" transform="translate(164,267)"/>
<path d="M0 0 C2.625 0.9375 2.625 0.9375 5 2 C4.02433888 3.16959987 3.044375 4.33561177 2.0625 5.5 C1.51722656 6.1496875 0.97195312 6.799375 0.41015625 7.46875 C-0.05519531 7.9740625 -0.52054688 8.479375 -1 9 C-1.33 9 -1.66 9 -2 9 C-2 6.36 -2 3.72 -2 1 C-1.34 0.67 -0.68 0.34 0 0 Z " fill="#976007" transform="translate(144,114)"/>
<path d="M0 0 C0.66 0 1.32 0 2 0 C3.37248681 1.55315386 4.67478701 3.16885684 5.9375 4.8125 C8.17100024 7.70561339 10.33872798 10.4888938 13 13 C8.7135704 12.52373004 6.77895881 10.12632867 4 7 C0 1.37837838 0 1.37837838 0 0 Z " fill="#EBBB33" transform="translate(123,91)"/>
<path d="M0 0 C0.33 0.66 0.66 1.32 1 2 C-0.98 2.99 -0.98 2.99 -3 4 C-3 5.65 -3 7.3 -3 9 C-4.98 7.35 -6.96 5.7 -9 4 C-8 2 -8 2 -6.15234375 1.3671875 C-5.05599609 1.12355469 -5.05599609 1.12355469 -3.9375 0.875 C-3.20402344 0.70742187 -2.47054687 0.53984375 -1.71484375 0.3671875 C-1.14894531 0.24601562 -0.58304688 0.12484375 0 0 Z " fill="#BF9733" transform="translate(122,94)"/>
<path d="M0 0 C0.66 0.33 1.32 0.66 2 1 C0.92333797 2.7541123 -0.16163339 4.50312587 -1.25 6.25 C-2.15492187 7.71179688 -2.15492187 7.71179688 -3.078125 9.203125 C-4.86054442 11.79705245 -6.70101628 13.86377619 -9 16 C-9 12.24277693 -7.97938773 11.41178964 -5.625 8.5625 C-3.35490924 5.80195753 -1.47244563 3.2646648 0 0 Z " fill="#EDB737" transform="translate(84,105)"/>
<path d="M0 0 C2.875 -0.1875 2.875 -0.1875 6 0 C6.66 0.99 7.32 1.98 8 3 C7.67 3.66 7.34 4.32 7 5 C4.69 4.67 2.38 4.34 0 4 C0 2.68 0 1.36 0 0 Z " fill="#582E00" transform="translate(202,61)"/>
<path d="M0 0 C0.66 0.33 1.32 0.66 2 1 C2 1.66 2 2.32 2 3 C2.31478446 4.33783393 2.64587656 5.67203709 3 7 C1.35 7.33 -0.3 7.66 -2 8 C-1.125 1.125 -1.125 1.125 0 0 Z " fill="#7F7F7F" transform="translate(201,267)"/>
<path d="M0 0 C4.3177458 0.50797009 8.03302114 1.19682779 12 3 C12 3.33 12 3.66 12 4 C8.04 3.67 4.08 3.34 0 3 C0 2.01 0 1.02 0 0 Z " fill="#494131" transform="translate(147,227)"/>
<path d="M0 0 C0.99 0 1.98 0 3 0 C3 1.32 3 2.64 3 4 C3.63808594 4.10957031 4.27617187 4.21914062 4.93359375 4.33203125 C5.75988281 4.49058594 6.58617187 4.64914063 7.4375 4.8125 C8.26121094 4.96332031 9.08492187 5.11414063 9.93359375 5.26953125 C10.95646484 5.63111328 10.95646484 5.63111328 12 6 C12.33 6.99 12.66 7.98 13 9 C8.56903487 7.8705383 4.66476754 6.8024693 1 4 C0.1875 1.8125 0.1875 1.8125 0 0 Z " fill="#9F7725" transform="translate(124,198)"/>
<path d="M0 0 C1.125 1.625 1.125 1.625 1.125 2.625 C-2.175 2.625 -5.475 2.625 -8.875 2.625 C-8.545 1.635 -8.215 0.645 -7.875 -0.375 C-2.35227273 -1.725 -2.35227273 -1.725 0 0 Z " fill="#D2A32E" transform="translate(181.875,134.375)"/>
<path d="M0 0 C0.33 0 0.66 0 1 0 C1 5.28 1 10.56 1 16 C0.01 16.33 -0.98 16.66 -2 17 C-2.04254356 15.00045254 -2.04080783 12.99958364 -2 11 C-1.67 10.67 -1.34 10.34 -1 10 C-0.76712992 8.31816052 -0.58735834 6.6287584 -0.4375 4.9375 C-0.35371094 4.01839844 -0.26992187 3.09929688 -0.18359375 2.15234375 C-0.12300781 1.44207031 -0.06242188 0.73179688 0 0 Z " fill="#875406" transform="translate(184,48)"/>
<path d="M0 0 C0.66 0.66 1.32 1.32 2 2 C0.10507994 2.33848652 -1.79098466 2.67056911 -3.6875 3 C-4.74324219 3.185625 -5.79898438 3.37125 -6.88671875 3.5625 C-9.64904062 3.95068074 -12.21742043 4.08259976 -15 4 C-9.90545414 1.35838363 -5.86865348 -0.52165809 0 0 Z " fill="#BE973D" transform="translate(94,240)"/>
<path d="M0 0 C1.08667969 0.19464844 2.17335938 0.38929687 3.29296875 0.58984375 C4.54013672 0.82380859 4.54013672 0.82380859 5.8125 1.0625 C5.8125 1.3925 5.8125 1.7225 5.8125 2.0625 C3.68777424 2.11636629 1.56266348 2.15523071 -0.5625 2.1875 C-2.33753906 2.22230469 -2.33753906 2.22230469 -4.1484375 2.2578125 C-7.1875 2.0625 -7.1875 2.0625 -9.1875 0.0625 C-5.61369658 -1.12876781 -3.67866698 -0.6724445 0 0 Z " fill="#C59E3D" transform="translate(107.1875,30.9375)"/>
<path d="M0 0 C0.66 0 1.32 0 2 0 C0.68775452 3.93673644 -0.91910327 6.22719294 -4 9 C-4.33 6.69 -4.66 4.38 -5 2 C-4.360625 1.855625 -3.72125 1.71125 -3.0625 1.5625 C-1.02454854 1.18992819 -1.02454854 1.18992819 0 0 Z " fill="#A46808" transform="translate(81,107)"/>
<path d="M0 0 C0.66 0.33 1.32 0.66 2 1 C1.34 1.37125 0.68 1.7425 0 2.125 C-3.84330083 4.52706302 -7.40566028 7.24404225 -11 10 C-10.38635566 6.93177829 -9.48248059 5.34567135 -6.93359375 3.51953125 C-4.64582499 2.20856264 -2.45621072 0.96232137 0 0 Z " fill="#AC8430" transform="translate(125,42)"/>
<path d="M0 0 C0.33 0.66 0.66 1.32 1 2 C1.99 2 2.98 2 4 2 C4.33 1.34 4.66 0.68 5 0 C5 0.66 5 1.32 5 2 C5.66 2.33 6.32 2.66 7 3 C6.34 3 5.68 3 5 3 C5 4.32 5 5.64 5 7 C5.66 7.33 6.32 7.66 7 8 C6.01 8 5.02 8 4 8 C4 6.35 4 4.7 4 3 C3.01 3 2.02 3 1 3 C1 4.32 1 5.64 1 7 C1.66 7.33 2.32 7.66 3 8 C2.01 8 1.02 8 0 8 C0 5.36 0 2.72 0 0 Z " fill="#4C4C4C" transform="translate(75,267)"/>
<path d="M0 0 C0.66 0.33 1.32 0.66 2 1 C2 5.62 2 10.24 2 15 C-0.78695122 9.42609756 -1.27740813 6.1031722 0 0 Z " fill="#EBEBE8" transform="translate(65,225)"/>
<path d="M0 0 C1.32 0.66 2.64 1.32 4 2 C4 2.33 4 2.66 4 3 C2.02 3.33 0.04 3.66 -2 4 C-2 3.34 -2 2.68 -2 2 C-1.34 2 -0.68 2 0 2 C0 1.34 0 0.68 0 0 Z M-4 5 C-4 8 -4 8 -5 10 C-5.99 10 -6.98 10 -8 10 C-8 9.01 -8 8.02 -8 7 C-6.68 6.34 -5.36 5.68 -4 5 Z " fill="#ABA69F" transform="translate(140,222)"/>
<path d="M0 0 C0.33 0 0.66 0 1 0 C0.33333333 6 -0.33333333 12 -1 18 C-1.33 18 -1.66 18 -2 18 C-2.054138 15.75026553 -2.09285491 13.50015617 -2.125 11.25 C-2.14820313 9.99703125 -2.17140625 8.7440625 -2.1953125 7.453125 C-2.01537302 4.27179508 -1.68998582 2.63478104 0 0 Z " fill="#EEC95B" transform="translate(165,138)"/>
<path d="M0 0 C0.70125 0.309375 1.4025 0.61875 2.125 0.9375 C5.08936657 2.03302678 7.87698108 2.56422992 11 3 C10.67 3.66 10.34 4.32 10 5 C3.51707705 5.3669579 3.51707705 5.3669579 1.0625 3.625 C0 2 0 2 0 0 Z " fill="#945F05" transform="translate(168,201)"/>
<path d="M0 0 C-0.33 0.99 -0.66 1.98 -1 3 C-4.3 3 -7.6 3 -11 3 C-11 2.34 -11 1.68 -11 1 C-3.375 0 -3.375 0 0 0 Z " fill="#A3761B" transform="translate(140,127)"/>
<path d="M0 0 C0.33 0 0.66 0 1 0 C1 4.29 1 8.58 1 13 C2.98 13.495 2.98 13.495 5 14 C2.525 15.485 2.525 15.485 0 17 C0 11.39 0 5.78 0 0 Z " fill="#FEFADC" transform="translate(114,32)"/>
<path d="M0 0 C1.32 1.65 2.64 3.3 4 5 C-3.75 4.25 -3.75 4.25 -6 2 C-4.02 1.34 -2.04 0.68 0 0 Z " fill="#5F5F5F" transform="translate(146,227)"/>
<path d="M0 0 C0.33 0.66 0.66 1.32 1 2 C-2.3 2 -5.6 2 -9 2 C-9 1.34 -9 0.68 -9 0 C-5.88173308 -1.55913346 -3.32926126 -0.66585225 0 0 Z " fill="#A57211" transform="translate(179,132)"/>
<path d="M0 0 C0.33 0.66 0.66 1.32 1 2 C2.65 1.67 4.3 1.34 6 1 C6.33 2.32 6.66 3.64 7 5 C4.69 5 2.38 5 0 5 C0 3.35 0 1.7 0 0 Z " fill="#522E04" transform="translate(203,67)"/>
<path d="M0 0 C2 0.25 2 0.25 4 1 C4.33 1.99 4.66 2.98 5 4 C3.35 4.33 1.7 4.66 0 5 C-0.5625 3.0625 -0.5625 3.0625 -1 1 C-0.67 0.67 -0.34 0.34 0 0 Z " fill="#B0B0B0" transform="translate(122,270)"/>
<path d="M0 0 C0.66 0 1.32 0 2 0 C1.34 5.28 0.68 10.56 0 16 C-0.33 16 -0.66 16 -1 16 C-1.02685095 13.52076199 -1.04676547 11.0418116 -1.0625 8.5625 C-1.07506836 7.50192383 -1.07506836 7.50192383 -1.08789062 6.41992188 C-1.09653588 4.61306441 -1.05220011 2.80612397 -1 1 C-0.67 0.67 -0.34 0.34 0 0 Z " fill="#F1ECD7" transform="translate(122,140)"/>
<path d="M0 0 C-2.35302007 2.35302007 -3.27435295 2.39392208 -6.5 2.75 C-7.2940625 2.84796875 -8.088125 2.9459375 -8.90625 3.046875 C-11 3 -11 3 -13 1 C-4.57142857 -1.42857143 -4.57142857 -1.42857143 0 0 Z " fill="#976A19" transform="translate(140,106)"/>
<path d="M0 0 C0.33 0 0.66 0 1 0 C1.08114106 1.77007714 1.13925505 3.54122098 1.1875 5.3125 C1.23970703 6.79169922 1.23970703 6.79169922 1.29296875 8.30078125 C1 11 1 11 -0.51171875 12.85546875 C-1.00285156 13.23316406 -1.49398437 13.61085937 -2 14 C-1.43393721 9.30976546 -0.81462495 4.65499974 0 0 Z " fill="#FDF4CA" transform="translate(210,188)"/>
<path d="M0 0 C0.33 1.32 0.66 2.64 1 4 C0.01 5.485 0.01 5.485 -1 7 C-1.66 7 -2.32 7 -3 7 C-3 7.66 -3 8.32 -3 9 C-3.66 8.67 -4.32 8.34 -5 8 C-3.35 5.36 -1.7 2.72 0 0 Z " fill="#B08D3C" transform="translate(132,121)"/>
<path d="M0 0 C2.97 0.33 5.94 0.66 9 1 C9 1.66 9 2.32 9 3 C6.03 3 3.06 3 0 3 C0 2.01 0 1.02 0 0 Z " fill="#C2983B" transform="translate(75,26)"/>
<path d="M0 0 C1.32 0 2.64 0 4 0 C4 0.99 4 1.98 4 3 C3.01 3 2.02 3 1 3 C1 3.66 1 4.32 1 5 C1.99 5.33 2.98 5.66 4 6 C2.68 6 1.36 6 0 6 C-1.125 2.25 -1.125 2.25 0 0 Z " fill="#686868" transform="translate(83,269)"/>
<path d="M0 0 C0.99 0.33 1.98 0.66 3 1 C-1.625 6.875 -1.625 6.875 -5 8 C-4.67 6.68 -4.34 5.36 -4 4 C-3.01 4 -2.02 4 -1 4 C-0.67 2.68 -0.34 1.36 0 0 Z " fill="#E7C350" transform="translate(200,213)"/>
<path d="M0 0 C0.66 0.66 1.32 1.32 2 2 C-0.3125 3.5625 -0.3125 3.5625 -3 5 C-3.99 4.67 -4.98 4.34 -6 4 C-6 3.34 -6 2.68 -6 2 C-4.02 1.34 -2.04 0.68 0 0 Z " fill="#D19C1C" transform="translate(60,128)"/>
<path d="M0 0 C2.97 0.495 2.97 0.495 6 1 C5.67 1.99 5.34 2.98 5 4 C2.9375 4.6875 2.9375 4.6875 1 5 C0.67 3.35 0.34 1.7 0 0 Z " fill="#AA8228" transform="translate(146,86)"/>
<path d="M0 0 C2.31 1.98 4.62 3.96 7 6 C4 7 4 7 1.8125 6.0625 C1.214375 5.711875 0.61625 5.36125 0 5 C0 3.35 0 1.7 0 0 Z " fill="#B0ADA9" transform="translate(69,239)"/>
<path d="M0 0 C2.31 0.66 4.62 1.32 7 2 C7 2.33 7 2.66 7 3 C2.545 3.495 2.545 3.495 -2 4 C-1.34 2.68 -0.68 1.36 0 0 Z " fill="#92856D" transform="translate(144,224)"/>
<path d="M0 0 C1.37562854 1.28965176 2.70766393 2.62689293 4 4 C4 4.66 4 5.32 4 6 C2.02 6 0.04 6 -2 6 C-2 5.34 -2 4.68 -2 4 C-1.34 3.67 -0.68 3.34 0 3 C0 2.01 0 1.02 0 0 Z " fill="#F1EDDF" transform="translate(129,212)"/>
<path d="M0 0 C0.66 0 1.32 0 2 0 C2.66 2.31 3.32 4.62 4 7 C3.01 6.34 2.02 5.68 1 5 C0.01 5.495 0.01 5.495 -1 6 C-0.67 4.02 -0.34 2.04 0 0 Z " fill="#F7ECC6" transform="translate(167,136)"/>
<path d="M0 0 C2.76223278 2.76223278 2.57856291 5.20706617 3 9 C2.01 9 1.02 9 0 9 C0 6.03 0 3.06 0 0 Z " fill="#6F500E" transform="translate(181,98)"/>
<path d="M0 0 C-0.99 3.3 -1.98 6.6 -3 10 C-3.33 10 -3.66 10 -4 10 C-3.67 7.69 -3.34 5.38 -3 3 C-3.99 2.67 -4.98 2.34 -6 2 C-2.25 0 -2.25 0 0 0 Z " fill="#F0E3C3" transform="translate(111,54)"/>
<path d="M0 0 C2.64 0 5.28 0 8 0 C7 2 7 2 4.625 3.1875 C2 4 2 4 -1 3 C-0.34 2.67 0.32 2.34 1 2 C0.67 1.34 0.34 0.68 0 0 Z " fill="#754C13" transform="translate(105,52)"/>
<path d="M0 0 C-0.33 0.99 -0.66 1.98 -1 3 C-1.66 3 -2.32 3 -3 3 C-3 3.66 -3 4.32 -3 5 C-3.99 5.33 -4.98 5.66 -6 6 C-6.33 5.01 -6.66 4.02 -7 3 C-2.25 0 -2.25 0 0 0 Z " fill="#8C6E32" transform="translate(145,112)"/>
<path d="M0 0 C2.475 0.495 2.475 0.495 5 1 C5 1.99 5 2.98 5 4 C3.68 4 2.36 4 1 4 C0.67 2.68 0.34 1.36 0 0 Z " fill="#A5A5A5" transform="translate(156,271)"/>
<path d="M0 0 C0 1.65 0 3.3 0 5 C-1.65 5 -3.3 5 -5 5 C-3.33333333 0 -3.33333333 0 0 0 Z " fill="#FEF8E8" transform="translate(171,102)"/>
</svg>